<?xml version="1.0" encoding="utf-8"?>
<!-- Generator: Adobe Illustrator 23.0.1, SVG Export Plug-In . SVG Version: 6.00 Build 0)  -->
<svg version="1.1" xmlns="http://www.w3.org/2000/svg" xmlns:xlink="http://www.w3.org/1999/xlink" x="0px" y="0px"
	 viewBox="0 0 3710 3710" style="enable-background:new 0 0 3710 3710;" xml:space="preserve">
<style type="text/css">
	.st0{clip-path:url(#SVGID_2_);}
	.st1{fill:#FFFFFF;}
	.st2{fill:url(#SVGID_3_);}
	.st3{fill:#91B3FA;}
	.st4{fill:#BDD0FB;}
	.st5{fill:url(#SVGID_4_);}
	.st6{fill:url(#SVGID_5_);}
	.st7{fill:url(#SVGID_6_);}
	.st8{opacity:0.44;fill:#FFFFFF;enable-background:new    ;}
	.st9{opacity:0.43;fill:#FFFFFF;enable-background:new    ;}
	.st10{opacity:0.46;fill:#FFFFFF;enable-background:new    ;}
	.st11{opacity:0.38;fill:#FFFFFF;enable-background:new    ;}
	.st12{opacity:0.42;fill:#FFFFFF;enable-background:new    ;}
	.st13{opacity:0.58;fill:#FFFFFF;enable-background:new    ;}
	.st14{opacity:0.28;fill:#FFFFFF;enable-background:new    ;}
	.st15{opacity:0.47;fill:#FFFFFF;enable-background:new    ;}
	.st16{fill:url(#SVGID_7_);}
	.st17{opacity:0.69;fill:#FFFFFF;enable-background:new    ;}
	.st18{fill:url(#SVGID_8_);}
	.st19{fill:url(#SVGID_9_);}
	.st20{fill:url(#SVGID_10_);}
	.st21{fill:url(#SVGID_11_);}
	.st22{fill:url(#SVGID_12_);}
	.st23{fill:url(#SVGID_13_);}
	.st24{fill:url(#SVGID_14_);}
	.st25{fill:url(#SVGID_15_);}
	.st26{fill:url(#SVGID_16_);}
	.st27{fill:url(#SVGID_17_);}
	.st28{fill:url(#SVGID_18_);}
	.st29{fill:url(#SVGID_19_);}
	.st30{fill:url(#SVGID_20_);}
	.st31{fill:url(#SVGID_21_);}
	.st32{fill:url(#SVGID_22_);}
	.st33{fill:url(#SVGID_23_);}
	.st34{opacity:0.76;fill:#FFFFFF;enable-background:new    ;}
	.st35{fill:url(#SVGID_24_);}
	.st36{fill:#7D97F4;}
	.st37{fill:url(#SVGID_25_);}
	.st38{fill:url(#SVGID_26_);}
	.st39{fill:url(#SVGID_27_);}
	.st40{fill:url(#SVGID_28_);}
	.st41{fill:url(#SVGID_29_);}
	.st42{fill:url(#SVGID_30_);}
	.st43{fill:url(#SVGID_31_);}
	.st44{fill:url(#SVGID_32_);}
	.st45{fill:url(#SVGID_33_);}
	.st46{fill:url(#SVGID_34_);}
	.st47{fill:url(#SVGID_35_);}
	.st48{fill:url(#SVGID_36_);}
	.st49{fill:url(#SVGID_37_);}
	.st50{fill:url(#SVGID_38_);}
	.st51{fill:url(#SVGID_39_);}
	.st52{opacity:0.64;}
	.st53{fill:url(#SVGID_40_);}
	.st54{fill:url(#SVGID_41_);}
	.st55{fill:url(#SVGID_42_);}
	.st56{fill:url(#SVGID_43_);}
	.st57{fill:url(#SVGID_44_);}
	.st58{fill:url(#SVGID_45_);}
	.st59{fill:url(#SVGID_46_);}
	.st60{fill:url(#SVGID_47_);}
	.st61{fill:url(#SVGID_48_);}
	.st62{fill:url(#SVGID_49_);}
	.st63{fill:url(#SVGID_50_);}
	.st64{fill:url(#SVGID_51_);}
	.st65{fill:url(#SVGID_52_);}
	.st66{fill:url(#SVGID_53_);}
</style>
<g id="Layer_1">
	<title>img</title>
</g>
<g id="mask">
	<g>
		<defs>
			<circle id="SVGID_1_" cx="1802.5" cy="1919.1" r="1347.7"/>
		</defs>
		<clipPath id="SVGID_2_">
			<use xlink:href="#SVGID_1_"  style="overflow:visible;"/>
		</clipPath>
		<g class="st0">
			<g id="Background">
				<rect class="st1" width="3710" height="3710"/>
			</g>
			<g id="Illustration">
				
					<linearGradient id="SVGID_3_" gradientUnits="userSpaceOnUse" x1="3559.8425" y1="-325.99" x2="1126.7423" y2="2695.7703" gradientTransform="matrix(1 0 0 -1 0 3710)">
					<stop  offset="0" style="stop-color:#DAE3FE"/>
					<stop  offset="1" style="stop-color:#E9EFFD"/>
				</linearGradient>
				<path class="st2" d="M2890.5,2844.3c-55.9,58.8-108.8,96.8-150.6,126.8c-491.1,352.4-1072.2,249.7-1195.7,224.6
					c-182.4-37-534.9-108.6-789.8-408.4C368.8,2333.8,428.9,1619.4,728,1147.8c54.7-86.3,343.7-565,931.1-641.8
					c355.5-46.5,769.8,47.3,1069.9,298.6C3358.8,1332.4,3314,2398.5,2890.5,2844.3z"/>
				<path class="st3" d="M482.8,468.8c-2.6-11,12.9-18.4,22.4-10.6c96.4,78.2,328.1,312.3,270.4,721.5
					c-72.4,513.4,51.4,700.7,205.6,814.9c0,0-211.7-53.7-344.9-243.8C309.2,1284.1,528.8,664.8,482.8,468.8z"/>
				<path class="st1" d="M556.1,629.2c12.1,57.2,22.8,114.5,31.1,172c8.7,57.5,15.3,115.2,19.8,173.1c4.3,57.8,7.3,115.8,7.5,173.7
					c0.5,57.9-1.9,115.8-4.6,173.9c-2.3,58.1-5,116.6-0.7,175.5s16.6,118.1,41.1,173.7c6.1,13.9,12.6,27.7,19.9,41
					c7,13.5,14.8,26.7,22.8,39.8c16.3,26.4,34.6,51.5,54.7,75.2c40.8,47.8,89.9,90.2,144,126c5.7,3.8,13.9,2.8,18.2-2.1
					s3.3-11.7-2.1-15.5l0,0c-12.9-9-25.6-18.2-37.9-27.8c-6.2-4.7-12.2-9.7-18.2-14.5c-5.8-5-11.9-9.9-17.5-15.1
					c-22.8-20.2-44-42.1-63.6-65.4c-38.9-45.9-70-97.1-93.5-150.2c-11.4-26.5-20.5-53.8-27.3-81.8c-6.5-27.9-10.9-56.2-13.2-84.8
					c-4.6-57.2-2.5-115.1-0.8-173.2s3-116.5,1.4-174.9c-0.7-29.2-1.9-58.3-3.8-87.5c-0.8-14.6-2-29.1-3.2-43.7
					c-1.3-14.5-2.7-29.1-4.2-43.6c-6.3-58.1-14.6-115.9-25-173.5C590.5,742,578,684.7,563,628c-0.6-1.7-2.4-2.7-4.2-2.3
					C557.1,625.9,555.9,627.4,556.1,629.2C556.1,629.1,556.1,629.2,556.1,629.2z"/>
				<path class="st4" d="M732.5,1736.4c-9.2,9.7-24.6,10.1-34.3,0.9c-2.3-2.2-4.1-4.8-5.4-7.6c-39.2-86.6-128-341.6,18.6-635.4
					C835.3,846.3,878.8,700,894,632.2c3.2-14.3,22.8-16.2,28.8-2.8C988.2,777.7,1160.9,1281.9,732.5,1736.4z"/>
				<path class="st1" d="M711,1727.3c-0.4,0.1-0.9,0.1-1.3,0.1c-3.7-0.1-6.7-3.1-6.6-6.8c0,0,0,0,0,0c0.1-4.2,8.3-425.3,164.9-778
					c1.5-3.4,5.5-4.9,8.9-3.4c3.4,1.5,4.9,5.5,3.4,8.9l0,0c-155.5,350.1-163.7,768.6-163.7,772.7
					C716.5,1724,714.2,1726.7,711,1727.3z"/>
				
					<linearGradient id="SVGID_4_" gradientUnits="userSpaceOnUse" x1="1937.895" y1="1255.8101" x2="1937.895" y2="44.46" gradientTransform="matrix(1 0 0 -1 0 3710)">
					<stop  offset="0" style="stop-color:#09005D"/>
					<stop  offset="1" style="stop-color:#1A0F91"/>
				</linearGradient>
				<polygon class="st5" points="1650.3,2508.3 1590.3,3045.6 2285.4,3045.6 2194.9,2508.3 				"/>
				
					<linearGradient id="SVGID_5_" gradientUnits="userSpaceOnUse" x1="1853.9153" y1="3200.8501" x2="1874.1052" y2="1121.3702" gradientTransform="matrix(1 0 0 -1 0 3710)">
					<stop  offset="0" style="stop-color:#09005D"/>
					<stop  offset="1" style="stop-color:#1A0F91"/>
				</linearGradient>
				<path class="st6" d="M482.6,1184.4V2415c0,101.2,80.7,184,181.9,186.7c449.5,11.6,2021.5,39.7,2449.4,33.3
					c73.5-1.1,133.2-59.9,135.2-133.4c8.3-285.9,21.6-973.3-27.9-1292.5c-10.4-67.2-67.2-117.5-135.2-119.7
					c-376.6-12-2043.1-50.3-2470.8-40.7C541.5,1050.3,482.6,1110.6,482.6,1184.4z"/>
				<path class="st3" d="M559.8,1178.4v1169.2c0,59.1,47.4,107.3,106.5,108.1l2386,29.5c58.1,0.9,106-45.6,106.8-103.7
					c0-0.4,0-0.8,0-1.2l4-1158.7c0.1-41.9-33.2-76.2-75.1-77.3L645.3,1095c-46.1-1.1-84.3,35.3-85.4,81.4
					C559.9,1177,559.8,1177.7,559.8,1178.4z"/>
				<path class="st3" d="M3177.2,2533.5L3177.2,2533.5l-2617.4-44.6c-2,0.1-3.7-1.5-3.8-3.6c-0.1-2,1.5-3.7,3.6-3.8
					c0.1,0,0.2,0,0.4,0l2617.3,44.6c2,0.1,3.6,1.9,3.4,3.9C3180.6,2531.9,3179,2533.4,3177.2,2533.5L3177.2,2533.5z"/>
				
					<linearGradient id="SVGID_6_" gradientUnits="userSpaceOnUse" x1="2010.7991" y1="1599.8485" x2="1923.309" y2="550.0084" gradientTransform="matrix(1 0 0 -1 0 3710)">
					<stop  offset="0" style="stop-color:#09005D"/>
					<stop  offset="1" style="stop-color:#1A0F91"/>
				</linearGradient>
				<path class="st7" d="M2435.2,3155.5H1417.8c-27.6,0-48.4-19.7-43-40.8l13-51.6c3.9-15.5,21-26.9,41.3-27.6l980.7-30.6
					c21.2-0.7,40,10.6,44.6,26.7l23.5,82.2C2484.1,3135.3,2463.2,3155.5,2435.2,3155.5z"/>
				<path class="st3" d="M1965.5,3049.9c-2-0.1-3.6-1.8-3.5-3.9c0.1-1.9,1.6-3.4,3.5-3.5l42-0.6l0,0c2,0,3.7,1.6,3.7,3.6
					c0,2-1.6,3.7-3.6,3.7l0,0L1965.5,3049.9L1965.5,3049.9z"/>
				<path class="st3" d="M1412.5,3127.4c-0.2,0-0.4,0-0.6,0c-2-0.3-3.3-2.2-3-4.2l6-37.6c3.2-20.3,20.6-35.4,41.1-35.7l445.8-6.5
					c2,0.1,3.6,1.8,3.5,3.8c-0.1,1.9-1.5,3.4-3.4,3.5l-445.8,6.5c-17,0.2-31.3,12.7-34,29.5l-6,37.6
					C1415.8,3126.1,1414.3,3127.4,1412.5,3127.4z"/>
				<path class="st8" d="M2643.5,1538.8h-265.2c-16.6-0.3-29.9-14-29.6-30.7c0.3-16.2,13.4-29.3,29.6-29.6h265.2
					c16.6,0.3,29.9,14,29.6,30.7C2672.8,1525.5,2659.7,1538.5,2643.5,1538.8z"/>
				<path class="st9" d="M2741.1,1491.4h286.3c18,0,32.5,53.5,32.5,119.6v704.2c0,66-14.6,119.6-32.5,119.6h-286.3
					c-18,0-32.5-53.5-32.5-119.6V1611C2708.6,1544.9,2723.1,1491.4,2741.1,1491.4z"/>
				<path class="st10" d="M2378.3,1572.3h265.2c16.6,0,30.1,13.5,30.1,30.1V1780c0,16.6-13.5,30.1-30.1,30.1h-265.2
					c-16.6,0-30.1-13.5-30.1-30.1v-177.5C2348.1,1585.8,2361.6,1572.3,2378.3,1572.3z"/>
				<path class="st11" d="M2378.3,1863.3h265.2c16.6,0,30.1,32.5,30.1,72.7v427.8c0,40.1-13.5,72.6-30.1,72.6h-265.2
					c-16.6,0-30.1-32.5-30.1-72.6V1936C2348.1,1895.8,2361.6,1863.3,2378.3,1863.3z"/>
				<path class="st12" d="M3056.6,1441.3H680.8c-27.5,0-49.8-22.3-49.8-49.8v-198.1c0-27.5,22.3-49.8,49.8-49.8c0.4,0,0.8,0,1.2,0
					l2375.8,60.1c27,0.7,48.5,22.8,48.5,49.8v138.1C3106.3,1418.9,3084,1441.2,3056.6,1441.3z"/>
				<path class="st13" d="M1461.3,1500.2h800.5c20.2,0,36.5,16.4,36.5,36.5v682.8c0,20.2-16.4,36.5-36.5,36.5h-800.5
					c-20.2,0-36.5-16.4-36.5-36.5v-682.8C1424.7,1516.5,1441.1,1500.2,1461.3,1500.2z"/>
				<path class="st14" d="M2296,2448.9l-1646-13.8c-19.9-0.2-36-16.4-36-36.4v-58.1c0-27.8,22.5-50.3,50.3-50.3l0,0h1629.5
					c10.7,0,19.4,8.7,19.4,19.4v122.1c0,9.4-7.6,17-17,17C2296.2,2448.9,2296.1,2448.9,2296,2448.9z"/>
				<path class="st15" d="M648.4,1478.6h691.2c19,0,34.4,15.4,34.4,34.4v691.2c0,19-15.4,34.4-34.4,34.4H648.4
					c-19,0-34.4-15.4-34.4-34.4V1513C614,1494,629.4,1478.6,648.4,1478.6z"/>
				
					<linearGradient id="SVGID_7_" gradientUnits="userSpaceOnUse" x1="1773.8346" y1="1506.3578" x2="2655.4246" y2="2125.4875" gradientTransform="matrix(1 0 0 -1 0 3710)">
					<stop  offset="0" style="stop-color:#FF928E"/>
					<stop  offset="1" style="stop-color:#FE7062"/>
				</linearGradient>
				<path class="st16" d="M1847.3,1557.2l778.5-7c15.1-0.1,27.5,12,27.6,27.1c0,0.1,0,0.3,0,0.4l-3.4,597.4
					c-0.1,15.1-12.4,27.3-27.5,27.2c-0.2,0-0.4,0-0.7,0c-140.8-4.2-765.7-22.7-793.2-21.6c-27.3,1.1-12.4-478.7-8.4-597.1
					C1820.7,1568.9,1832.6,1557.3,1847.3,1557.2z"/>
				<path class="st17" d="M2622.6,2179.8h-0.1c-111.8-3.3-674.9-20.1-778.7-21.5h-1.4l-0.3-1.4c-9.8-55.1-9.6-279.8,0.5-572.5
					c0.1-2.6,2.2-4.6,4.8-4.7l778.5-7c2.7,0,4.9,2.1,4.9,4.8c0,0,0,0,0,0.1l-3.4,597.4C2627.4,2177.6,2625.3,2179.8,2622.6,2179.8z
					 M1845.3,2154.9c107.4,1.6,666,18.2,777.3,21.5h0.1c0.7-0.1,1.3-0.7,1.3-1.4l3.4-597.4c0-0.4-0.2-0.7-0.4-1
					c-0.3-0.3-0.7-0.4-1.1-0.4l-778.5,7c-0.8,0-1.4,0.6-1.4,1.4C1836.1,1874.6,1835.8,2097.8,1845.3,2154.9L1845.3,2154.9z"/>
				<path class="st1" d="M1941.2,2103h510.3c11.3,0,20.5-9.2,20.5-20.5c0-3.7-1-7.3-2.8-10.4l-202-343.4c-5.8-9.8-18.3-13-28.1-7.3
					c-3.6,2.1-6.5,5.3-8.3,9.2l-97.6,213.8c-4.7,10.3-16.9,14.9-27.2,10.2c-2-0.9-3.8-2.1-5.4-3.6l-39.5-36.2
					c-8.4-7.7-21.4-7.1-29,1.2c-0.6,0.7-1.2,1.4-1.7,2.2l-106.1,152.6c-6.5,9.3-4.2,22.1,5.1,28.6
					C1932.9,2101.7,1937,2103,1941.2,2103z"/>
				
					<ellipse transform="matrix(0.9239 -0.3827 0.3827 0.9239 -471.4453 1066.296)" class="st1" cx="2444.6" cy="1718.2" rx="73.4" ry="73.4"/>
				
					<linearGradient id="SVGID_8_" gradientUnits="userSpaceOnUse" x1="2889.9919" y1="1180.2792" x2="3135.3721" y2="1776.6093" gradientTransform="matrix(0.9998 -1.884844e-02 -1.884844e-02 -0.9998 -14.1744 3753.8403)">
					<stop  offset="0" style="stop-color:#09005D"/>
					<stop  offset="1" style="stop-color:#1A0F91"/>
				</linearGradient>
				<path class="st18" d="M3112.6,2273c-17.9-66.3-73.3-120.7-134.9-134.4c-11.3-2.5-17.9-14.1-15.2-25.4l0.1-0.2
					c8.9-38.5-15.8-69.2-53-77.9s-72.9,8-81.9,46.6c-6,26,1.7,55.3,18.8,74.2c7,7.8,7.6,19.4,0.8,27.4
					c-37.6,44-52.9,111.2-36.6,171.4c23.9,88.5,107.2,128.1,190.6,105.5S3136.5,2361.5,3112.6,2273z"/>
				<path class="st3" d="M3086.6,2357.5l-1.6-1.1c14.9-21.2,16.8-51.8,5-79.8c-9.4-22.3-26.3-42.6-53-64.1
					c-10-8-20.5-15.6-30.7-22.9c-12.3-8.8-25-18-36.8-27.9c-10.6-8.9-21.8-20-24.1-34.5c-1.2-7.2-0.1-14.9,1-22.4
					c1.6-11.6,3.2-22.7-3.6-31.1l1.5-1.2c7.4,9.1,5.7,21.1,4,32.6c-1,7.3-2.1,14.9-1,21.8c2.2,13.9,13.1,24.6,23.4,33.3
					c11.7,9.9,24.4,19,36.7,27.8c10.2,7.4,20.8,15,30.8,23c27,21.7,44,42.3,53.6,64.9C3104,2304.4,3102,2335.7,3086.6,2357.5z"/>
				<path class="st3" d="M3047,2370.3l-1.9-0.7c10.2-28.1,7.2-62.6-8.2-94.7c-15.2-31.8-40.1-57.8-60-76.8l1.4-1.4
					c20.1,19.2,45.1,45.3,60.5,77.4C3054.3,2306.6,3057.3,2341.7,3047,2370.3z"/>
				
					<linearGradient id="SVGID_9_" gradientUnits="userSpaceOnUse" x1="2633.822" y1="1789.212" x2="2845.082" y2="1312.212" gradientTransform="matrix(1 0 0 -1 0 3710)">
					<stop  offset="0" style="stop-color:#FEBBBA"/>
					<stop  offset="1" style="stop-color:#FF928E"/>
				</linearGradient>
				<path class="st19" d="M2647,2006.8l-0.7-22.9l23.9-47.5c4.4-8.7,4.4-18.9,0.1-27.7l-27.1-54.7c0,0-15.6,118.7-19.8,128.6
					s11.2,27.6,11.2,27.6L2647,2006.8z"/>
				
					<linearGradient id="SVGID_10_" gradientUnits="userSpaceOnUse" x1="2637.5894" y1="1790.8798" x2="2848.8494" y2="1313.8796" gradientTransform="matrix(1 0 0 -1 0 3710)">
					<stop  offset="0" style="stop-color:#FEBBBA"/>
					<stop  offset="1" style="stop-color:#FF928E"/>
				</linearGradient>
				<path class="st20" d="M2646.3,1983.9c0,0,72.8,198.3,196.7,260.3c0,0-41.3,67.3-62.8,71.4c0,0-132.4-169.5-145.9-308.3
					L2646.3,1983.9z"/>
				
					<linearGradient id="SVGID_11_" gradientUnits="userSpaceOnUse" x1="3164.4678" y1="826.1201" x2="3178.9978" y2="467.7599" gradientTransform="matrix(1 0 0 -1 0 3710)">
					<stop  offset="0" style="stop-color:#4F52FF"/>
					<stop  offset="1" style="stop-color:#4042E2"/>
				</linearGradient>
				<path class="st21" d="M3144.8,3176.9l3.7,30.1c3.8,14.3,22.2,50.3,45.8,48c14.5-1.4,16.3-43.9,14.3-50.3
					c-3.7-11.6-10.4-29-20.2-39.3h-33.4c-5.7,0-10.3,4.6-10.3,10.3C3144.8,3176.1,3144.8,3176.5,3144.8,3176.9z"/>
				
					<linearGradient id="SVGID_12_" gradientUnits="userSpaceOnUse" x1="2872.9827" y1="264.0799" x2="2965.5425" y2="1345.8896" gradientTransform="matrix(1 0 0 -1 0 3710)">
					<stop  offset="0" style="stop-color:#FEBBBA"/>
					<stop  offset="1" style="stop-color:#FF928E"/>
				</linearGradient>
				<path class="st22" d="M2883.5,2824.5l-5.6,33.1c0,0,18.9,191,22.2,267.4c0.5,12-2.6,23.8-8.9,34l-32.8,53.3l83.3-49.2l1.7-10.2
					l-13.6-18.8l17.9-214c1.1-12.6-1.5-25.2-7.5-36.3l-17.2-32.3L2883.5,2824.5z"/>
				
					<linearGradient id="SVGID_13_" gradientUnits="userSpaceOnUse" x1="2916.4744" y1="854.5893" x2="2894.6843" y2="459.9091" gradientTransform="matrix(1 0 0 -1 0 3710)">
					<stop  offset="0" style="stop-color:#4F52FF"/>
					<stop  offset="1" style="stop-color:#4042E2"/>
				</linearGradient>
				<path class="st23" d="M2853,3220.1h26.6c5,0,9.7-2.3,12.7-6.2c8.3-10.8,25.5-31.8,33.7-32.3c11.1-0.7,9.6,38.6,9.6,38.6h6.2
					l7.9-48.9c2-12.3-4.1-24.5-15.2-30.2l0,0c0,0-2.5,18.7-16.2,27s-55.8,37.9-55.8,37.9c-3.6-0.4-7.2-0.3-10.8,0.3
					C2843.3,3207.6,2844.4,3220.1,2853,3220.1z"/>
				
					<linearGradient id="SVGID_14_" gradientUnits="userSpaceOnUse" x1="3059.1787" y1="247.9792" x2="3151.7688" y2="1330.0793" gradientTransform="matrix(1 0 0 -1 0 3710)">
					<stop  offset="0" style="stop-color:#FEBBBA"/>
					<stop  offset="1" style="stop-color:#FF928E"/>
				</linearGradient>
				<path class="st24" d="M2997.7,2840.3c0,0,110.5,209.6,128,257.4s23.7,87.8,23.9,91.5c0.4,5.9,7.7,11.6,28,11.6
					c10.4,0,15.6-4.2,18.1-8.2c2.1-3.5,2.3-7.8,0.4-11.4c-6.4-12.9-26.7-54.3-34.2-73c-9-22.4-28.3-123.8-38.8-159.1
					s-22.5-73.5-68.6-108.8C3054.5,2840.3,3022.9,2809.3,2997.7,2840.3z"/>
				
					<linearGradient id="SVGID_15_" gradientUnits="userSpaceOnUse" x1="3024.6133" y1="1544.8105" x2="2745.1133" y2="1154.2205" gradientTransform="matrix(1 0 0 -1 0 3710)">
					<stop  offset="0" style="stop-color:#FF928E"/>
					<stop  offset="1" style="stop-color:#FE7062"/>
				</linearGradient>
				<path class="st25" d="M2927.9,2496.9c-16.2-68.6,0.1-120.2,17.2-152c13.5-25,4.3-56.1-20.7-69.7c-0.3-0.2-0.6-0.3-0.8-0.4
					c-40-20.8-80.5-30.5-80.5-30.5s-79.2,57.9-69.8,103.2c5.5,26.6,55.7,159.1,55.7,159.1S2875.3,2528.5,2927.9,2496.9z"/>
				
					<linearGradient id="SVGID_16_" gradientUnits="userSpaceOnUse" x1="3179.134" y1="1352.9542" x2="2681.2043" y2="681.4942" gradientTransform="matrix(1 0 0 -1 0 3710)">
					<stop  offset="0" style="stop-color:#4F52FF"/>
					<stop  offset="1" style="stop-color:#4042E2"/>
				</linearGradient>
				<path class="st26" d="M2991.1,2556.7c-11.6-34.9-63.2-59.8-63.2-59.8c-52.6,31.6-99,9.6-99,9.6s-10.4,39.8-3.2,76.7
					s52.2,274.4,52.2,274.4c71,14.4,180.1-14.5,180.1-14.5C3012.8,2762.9,3002.7,2591.6,2991.1,2556.7z"/>
				
					<linearGradient id="SVGID_17_" gradientUnits="userSpaceOnUse" x1="2862.8306" y1="1330.4298" x2="2880.2205" y2="1457.6298" gradientTransform="matrix(1 0 0 -1 0 3710)">
					<stop  offset="0" style="stop-color:#FEBBBA"/>
					<stop  offset="1" style="stop-color:#FF928E"/>
				</linearGradient>
				<path class="st27" d="M2894.8,2164.4l23.2,104.1c2.2,9.2-6.1,7.7-15.4,5.9c-15.2-2.9-34.7-8.8-41.3-20.6c-0.6-1.2-1-2.6-1.2-3.9
					l-10-72.2c-0.8-5.7,2.3-11.3,7.6-13.6l19.2-8.5c6.6-2.9,14.2,0.1,17.1,6.6C2894.4,2163,2894.6,2163.7,2894.8,2164.4z"/>
				
					<linearGradient id="SVGID_18_" gradientUnits="userSpaceOnUse" x1="2770.9231" y1="1627.85" x2="2754.5732" y2="1225.4598" gradientTransform="matrix(1 0 0 -1 0 3710)">
					<stop  offset="0" style="stop-color:#FEBBBA"/>
					<stop  offset="1" style="stop-color:#FF928E"/>
				</linearGradient>
				<path class="st28" d="M2605.2,2095.7c0,0,61,211.8,306.9,191.9c15.7-1.3,29.4,10.3,30.8,26c0,0,0,0.1,0,0.1l0.7,8.5
					c1.7,20.9-13.9,39.1-34.8,40.8c-1.6,0.1-3.2,0.2-4.9,0.1c-81.8-4.1-257.4-36.3-317.6-230.6L2605.2,2095.7z"/>
				
					<linearGradient id="SVGID_19_" gradientUnits="userSpaceOnUse" x1="2588.2456" y1="1631.3098" x2="2573.0156" y2="1256.4497" gradientTransform="matrix(1 0 0 -1 0 3710)">
					<stop  offset="0" style="stop-color:#FEBBBA"/>
					<stop  offset="1" style="stop-color:#FF928E"/>
				</linearGradient>
				<path class="st29" d="M2586.2,2132.5c0,0-11.7-34.5-14.7-56s7.9-69.9,17.2-83.5s10.9,19.7,15.1,35.4s-2.9,38-2.9,38l4.3,29.3
					L2586.2,2132.5z"/>
				
					<linearGradient id="SVGID_20_" gradientUnits="userSpaceOnUse" x1="-5696.46" y1="371.8205" x2="-5580.02" y2="237.9504" gradientTransform="matrix(0.97 0.26 0.26 -0.97 8273.7305 3945.29)">
					<stop  offset="0" style="stop-color:#FEBBBA"/>
					<stop  offset="1" style="stop-color:#FF928E"/>
				</linearGradient>
				<path class="st30" d="M2847.3,2078.6c0,0-58.6,85.4-22.1,109.1s78.1-36.9,78.1-36.9s13.1-46.4-1.8-61.7
					S2847.3,2078.6,2847.3,2078.6z"/>
				
					<linearGradient id="SVGID_21_" gradientUnits="userSpaceOnUse" x1="2767.2439" y1="1223.8784" x2="3014.8042" y2="1825.5283" gradientTransform="matrix(0.9998 -1.884844e-02 -1.884844e-02 -0.9998 -14.1744 3753.8403)">
					<stop  offset="0" style="stop-color:#09005D"/>
					<stop  offset="1" style="stop-color:#1A0F91"/>
				</linearGradient>
				<path class="st31" d="M2871.9,2057.9c0,0-25.5,6.5-28.9,18.2s36.7,21.6,47.9,22l9.9,46.6c0,0,25.8-44.5,14.8-69.7
					S2871.9,2057.9,2871.9,2057.9z"/>
				
					<linearGradient id="SVGID_22_" gradientUnits="userSpaceOnUse" x1="-5667.5444" y1="396.9691" x2="-5551.1045" y2="263.0992" gradientTransform="matrix(0.97 0.26 0.26 -0.97 8273.7305 3945.29)">
					<stop  offset="0" style="stop-color:#FEBBBA"/>
					<stop  offset="1" style="stop-color:#FF928E"/>
				</linearGradient>
				<path class="st32" d="M2891.5,2144.8c0,0,22.9-27.6,32.6-10.1s-20.5,31.4-31.2,22.9L2891.5,2144.8z"/>
				<path class="st3" d="M700,2963h932.7v-151.5H700C720,2811.5,720,2963,700,2963z"/>
				
					<linearGradient id="SVGID_23_" gradientUnits="userSpaceOnUse" x1="1171.2572" y1="1784.2604" x2="1181.3472" y2="1262.7103" gradientTransform="matrix(1 0 0 -1 0 3710)">
					<stop  offset="0" style="stop-color:#FF928E"/>
					<stop  offset="1" style="stop-color:#FE7062"/>
				</linearGradient>
				<path class="st33" d="M1632.7,2925.1v-69.3c0-24.4-18.4-44.3-41.2-44.3H704c-17.9,0-32.4-11.8-32.4-26.3c0-4.4,4.4-8,9.8-8
					h970.1c22.3,0,57.6,28.4,57.6,63.4v96.8c0,33-34.3,59.8-55.3,59.8H686.5c-8.3,0-14.9-5.4-14.9-12.1c0-12.2,12.2-22.1,27.3-22.1
					h898.6C1617,2963,1632.7,2946,1632.7,2925.1z"/>
				<path class="st34" d="M1606.9,2845.9H732.3c-1.9,0.1-3.4-1.3-3.5-3.2c-0.1-1.9,1.3-3.4,3.2-3.5c0.1,0,0.2,0,0.4,0h874.5
					c1.9-0.1,3.4,1.3,3.5,3.2c0.1,1.9-1.3,3.4-3.2,3.5C1607.1,2845.9,1607,2845.9,1606.9,2845.9z"/>
				<path class="st34" d="M1606.9,2868.4H732.3c-1.9,0.1-3.4-1.3-3.5-3.2c-0.1-1.9,1.3-3.4,3.2-3.5c0.1,0,0.2,0,0.4,0h874.5
					c1.9-0.1,3.4,1.3,3.5,3.2c0.1,1.9-1.3,3.4-3.2,3.5C1607.1,2868.4,1607,2868.4,1606.9,2868.4z"/>
				<path class="st34" d="M1606.9,2890.9H732.3c-1.9,0.1-3.4-1.3-3.5-3.2c-0.1-1.9,1.3-3.4,3.2-3.5c0.1,0,0.2,0,0.4,0h874.5
					c1.9-0.1,3.4,1.3,3.5,3.2c0.1,1.9-1.3,3.4-3.2,3.5C1607.1,2890.9,1607,2890.9,1606.9,2890.9z"/>
				<path class="st34" d="M1606.9,2913.4H732.3c-1.9,0.1-3.4-1.3-3.5-3.2c-0.1-1.9,1.3-3.4,3.2-3.5c0.1,0,0.2,0,0.4,0h874.5
					c1.9-0.1,3.4,1.3,3.5,3.2c0.1,1.9-1.3,3.4-3.2,3.5C1607.1,2913.4,1607,2913.4,1606.9,2913.4z"/>
				<path class="st34" d="M1606.9,2935.9H732.3c-1.9,0.1-3.4-1.3-3.5-3.2c-0.1-1.9,1.3-3.4,3.2-3.5c0.1,0,0.2,0,0.4,0h874.5
					c1.9-0.1,3.4,1.3,3.5,3.2c0.1,1.9-1.3,3.4-3.2,3.5C1607.1,2935.9,1607,2935.9,1606.9,2935.9z"/>
				
					<linearGradient id="SVGID_24_" gradientUnits="userSpaceOnUse" x1="1160.5018" y1="-201.12" x2="1131.0217" y2="399.7201" gradientTransform="matrix(1 0 0 -1 0 3710)">
					<stop  offset="0" style="stop-color:#4F52FF"/>
					<stop  offset="1" style="stop-color:#4042E2"/>
				</linearGradient>
				<path class="st35" d="M514.3,2999.3h1215.4c8.1,0,14.7,6.6,14.7,14.7v223.8c0,8.1-6.6,14.7-14.7,14.7H514.3
					c-8.1,0-14.7-6.6-14.7-14.7V3014C499.6,3005.9,506.2,2999.3,514.3,2999.3z"/>
				<path class="st36" d="M664.6,3028.4h97.5c13.5,0,24.4,10.9,24.4,24.4V3199c0,13.5-10.9,24.4-24.4,24.4h-97.5
					c-13.5,0-24.4-10.9-24.4-24.4v-146.2C640.3,3039.3,651.2,3028.4,664.6,3028.4z"/>
				<path class="st36" d="M827.8,3028.4H843c10.9,0,19.8,8.9,19.8,19.8v155.3c0,10.9-8.9,19.8-19.8,19.8h-15.2
					c-10.9,0-19.8-8.9-19.8-19.8v-155.3C808,3037.3,816.9,3028.4,827.8,3028.4z"/>
				
					<linearGradient id="SVGID_25_" gradientUnits="userSpaceOnUse" x1="1265.8882" y1="2165.6111" x2="1147.5581" y2="1921.7211" gradientTransform="matrix(0.987 0.1607 0.1607 -0.987 -240.8987 3824.7197)">
					<stop  offset="0" style="stop-color:#09005D"/>
					<stop  offset="1" style="stop-color:#1A0F91"/>
				</linearGradient>
				<path class="st37" d="M1129.3,2096.1c-0.6,1.1-38.7,29.1-38.7,29.1s8.4,60.1,42.5,83.9c37.5,26.1,90.5-21.5,90.5-21.5
					s42.2,10,64.6-77.8c5.2-20.1-24.6-21.8-60.4-18.1C1181.6,2096.5,1129.3,2096.1,1129.3,2096.1z"/>
				
					<linearGradient id="SVGID_26_" gradientUnits="userSpaceOnUse" x1="1523.9465" y1="2068.5972" x2="1241.2966" y2="1375.4272" gradientTransform="matrix(1 0 0 -1 0 3710)">
					<stop  offset="0" style="stop-color:#FF928E"/>
					<stop  offset="1" style="stop-color:#FE7062"/>
				</linearGradient>
				<path class="st38" d="M1058.2,2301.2c14.9-10.3,31.4-17.9,48.8-22.7c6.6-1.8,41.9,8.5,63.8,8c30-0.7,60.6-14.4,85.3-8.2
					c24.6,6.1,44.7,14.1,56.3,22.4c34.8,24.7,55.2,70.9,67.6,116.6c-23.6,24.2-53.2,34.9-53.2,34.9l-5.5,222.1l-131.3,67.2
					l-149.9-75.3l5.4-217c0,0-47.6-22.2-51.1-30.2S1016.2,2330.1,1058.2,2301.2z"/>
				
					<linearGradient id="SVGID_27_" gradientUnits="userSpaceOnUse" x1="964.0958" y1="1339.5583" x2="1213.6359" y2="736.7783" gradientTransform="matrix(1 0 0 -1 0 3710)">
					<stop  offset="0" style="stop-color:#FEBBBA"/>
					<stop  offset="1" style="stop-color:#FF928E"/>
				</linearGradient>
				<path class="st39" d="M996.7,2418c0,0-63.8,176.8,81.7,249.5c30.2-4,18.6-54.2,18.6-54.2s-63.2-14-44.2-161.5
					C1035.3,2437.4,996.7,2418,996.7,2418z"/>
				
					<linearGradient id="SVGID_28_" gradientUnits="userSpaceOnUse" x1="-2943.5396" y1="1340.8644" x2="-2693.9995" y2="738.0844" gradientTransform="matrix(-1 0 0 -1 -1537.0698 3710)">
					<stop  offset="0" style="stop-color:#FEBBBA"/>
					<stop  offset="1" style="stop-color:#FF928E"/>
				</linearGradient>
				<path class="st40" d="M1377,2418c0,0,43.9,184.6-81.7,249.5c-30.2-4-18.6-54.2-18.6-54.2s50.9-25.1,44.2-161.5
					C1338.5,2437.4,1377,2418,1377,2418z"/>
				
					<linearGradient id="SVGID_29_" gradientUnits="userSpaceOnUse" x1="1185.756" y1="1261.66" x2="1172.786" y2="736.3101" gradientTransform="matrix(1 0 0 -1 0 3710)">
					<stop  offset="0" style="stop-color:#09005D"/>
					<stop  offset="1" style="stop-color:#1A0F91"/>
				</linearGradient>
				<path class="st41" d="M1046.8,2485.4h271.3c4.6,0,8.3,3.7,8.3,8.3v177.8c0,4.6-3.7,8.3-8.3,8.3h-271.3c-4.6,0-8.3-3.7-8.3-8.3
					v-177.8C1038.5,2489.1,1042.2,2485.4,1046.8,2485.4z"/>
				
					<linearGradient id="SVGID_30_" gradientUnits="userSpaceOnUse" x1="1337.0127" y1="962.4879" x2="1473.3727" y2="962.4879" gradientTransform="matrix(1 7.679373e-03 7.679373e-03 -1 -8.8333 3716.6409)">
					<stop  offset="0" style="stop-color:#09005D"/>
					<stop  offset="1" style="stop-color:#1A0F91"/>
				</linearGradient>
				<path class="st42" d="M1452.7,2737.6c-33-7.6-109.1-3.5-109.1-3.5l-3.1,8.4l-5.1,41.7c0,0,72.5,13.1,108.3,13.1
					c3.4,0,6.8-0.5,10-1.5c1.1-1,2.2-2,3.2-3.1C1472,2776,1467.7,2751.7,1452.7,2737.6z"/>
				
					<linearGradient id="SVGID_31_" gradientUnits="userSpaceOnUse" x1="1425.5347" y1="1191.4319" x2="1281.5946" y2="801.542" gradientTransform="matrix(1 0 0 -1 0 3710)">
					<stop  offset="0" style="stop-color:#FEBBBA"/>
					<stop  offset="1" style="stop-color:#FF928E"/>
				</linearGradient>
				<path class="st43" d="M1321.7,2731.7l12.9,0.6c7.1,0.4,13.7,3.8,18.1,9.4c4.7,5.9,7.1,13.4,6.7,20.9c-0.3,6-2.8,11.7-7,15.9
					c-4,4-9.5,6.1-15.1,5.7l-19.7-1.4L1321.7,2731.7z"/>
				
					<linearGradient id="SVGID_32_" gradientUnits="userSpaceOnUse" x1="-3217.9463" y1="986.0223" x2="-3081.5264" y2="986.0223" gradientTransform="matrix(-1 -2.000000e-02 2.000000e-02 -1 -2231.8999 3685.46)">
					<stop  offset="0" style="stop-color:#09005D"/>
					<stop  offset="1" style="stop-color:#1A0F91"/>
				</linearGradient>
				<path class="st44" d="M888,2733.5c33.1-6.6,109.2-0.1,109.2-0.1l2.9,8.5l4.1,41.8c0,0-72.8,10.9-108.6,9.7
					c-3.4-0.1-6.8-0.7-10-1.8c-1.1-1-2.1-2.1-3.1-3.2C867.8,2771.4,872.8,2747.2,888,2733.5z"/>
				
					<linearGradient id="SVGID_33_" gradientUnits="userSpaceOnUse" x1="1137.1503" y1="1308.9198" x2="993.1302" y2="918.83" gradientTransform="matrix(1 0 0 -1 0 3710)">
					<stop  offset="0" style="stop-color:#FEBBBA"/>
					<stop  offset="1" style="stop-color:#FF928E"/>
				</linearGradient>
				<path class="st45" d="M1019.2,2731.7l-12.9,0.1c-7.1,0.2-13.8,3.4-18.3,8.8c-4.9,5.8-7.4,13.1-7.2,20.7c0.1,6,2.5,11.7,6.6,16.1
					c3.9,4.1,9.3,6.4,14.9,6.2l19.8-0.8L1019.2,2731.7z"/>
				
					<linearGradient id="SVGID_34_" gradientUnits="userSpaceOnUse" x1="1486.5652" y1="1198.9298" x2="1112.3673" y2="917.8416" gradientTransform="matrix(1 0 0 -1 0 3710)">
					<stop  offset="0" style="stop-color:#4F52FF"/>
					<stop  offset="1" style="stop-color:#4042E2"/>
				</linearGradient>
				<path class="st46" d="M1462,2606.8c-15-34.4-51.5-40-82.6-23.9c-0.5,0.7-197.6,101.7-371.3,145.9c4.9,16.1,7.6,32.8,8.1,49.6
					c0.1,3.7,0,7.4-0.2,11c133.3-6.8,277.9-51.3,402.1-90.3C1456.6,2686.7,1478.5,2644.9,1462,2606.8z"/>
				
					<linearGradient id="SVGID_35_" gradientUnits="userSpaceOnUse" x1="1148.1672" y1="946.843" x2="1050.0972" y2="1196.9227" gradientTransform="matrix(1 0 0 -1 0 3710)">
					<stop  offset="0" style="stop-color:#4F52FF"/>
					<stop  offset="1" style="stop-color:#4042E2"/>
				</linearGradient>
				<path class="st47" d="M1322.7,2781.1c-0.7-18.5,3.2-37,11.2-53.7c0.2-0.8,0.5-1.5,0.8-2.2c-9.9-3.1-22.7-7.2-39.6-13
					c-123.4-42.2-217.5-84.9-307.3-133.9c-34.9-19.1-74.6-6.3-85.8,35c-10,36.9,11.9,68.3,45.2,79.4c99.4,33.1,47.7,23.9,80.1,34.4
					c87.2,27,195.8,51.5,295.6,58.2C1322.8,2783.9,1322.7,2782.5,1322.7,2781.1z"/>
				
					<linearGradient id="SVGID_36_" gradientUnits="userSpaceOnUse" x1="1183.2147" y1="1289.7906" x2="1179.8947" y2="1578.6805" gradientTransform="matrix(1 0 0 -1 0 3710)">
					<stop  offset="0" style="stop-color:#FEBBBA"/>
					<stop  offset="1" style="stop-color:#FF928E"/>
				</linearGradient>
				<path class="st48" d="M1107,2278.5c0,0,13.3,57.5,77.7,56.3c65.6-1.2,71.5-56.5,71.5-56.5l-42.9-9.2l-3.6-47.8l-64.5,4.8
					l-1.2,45.4L1107,2278.5z"/>
				
					<linearGradient id="SVGID_37_" gradientUnits="userSpaceOnUse" x1="1144.504" y1="1771.9866" x2="1154.854" y2="2023.3666" gradientTransform="matrix(0.987 0.1607 0.1607 -0.987 -240.8987 3824.7197)">
					<stop  offset="0" style="stop-color:#FEBBBA"/>
					<stop  offset="1" style="stop-color:#FF928E"/>
				</linearGradient>
				<path class="st49" d="M1154.2,2086.1c0,0-73.9,143.1,13.8,177.9c61.8,24.5,100.6-95,89-127.4c-17.9-50.1-29.7-44.1-29.7-44.1
					L1154.2,2086.1z"/>
				
					<linearGradient id="SVGID_38_" gradientUnits="userSpaceOnUse" x1="1266.7231" y1="2199.9534" x2="1133.5831" y2="1925.5132" gradientTransform="matrix(0.987 0.1607 0.1607 -0.987 -240.8987 3824.7197)">
					<stop  offset="0" style="stop-color:#09005D"/>
					<stop  offset="1" style="stop-color:#1A0F91"/>
				</linearGradient>
				<path class="st50" d="M1274.8,2073c36.5,10,5.3,89.2-49.7,70.5s-76.6-18.4-85.1-3.4s-10.4,68.7-29,42.2
					c-20.4-29-31.7-87.3-6.8-106.1c22.3-16.8,27.5-42.8,54.3-41.9c35.5,1.2,63-14.6,79.1-3.2C1256.1,2044.2,1248,2065.6,1274.8,2073
					z"/>
				
					<linearGradient id="SVGID_39_" gradientUnits="userSpaceOnUse" x1="1008.6185" y1="1231.5293" x2="1024.8285" y2="1625.4592" gradientTransform="matrix(0.9911 -0.1329 -0.1329 -0.9911 304.0546 3647.3066)">
					<stop  offset="0" style="stop-color:#FEBBBA"/>
					<stop  offset="1" style="stop-color:#FF928E"/>
				</linearGradient>
				<path class="st51" d="M1136.7,2152.5c0,0-15.8-17-18.3,3.5s5.6,46.8,15.1,32.3S1136.7,2152.5,1136.7,2152.5z"/>
				<path class="st3" d="M1199.4,2567.4c1.5,10.3-4,19.7-14.3,21.2c-10.3,1.5-19.9-5.6-21.4-15.9c-1.5-10.3,3.2-20.6,13.5-22.1
					S1197.9,2557.1,1199.4,2567.4z"/>
				<circle class="st1" cx="1001.4" cy="1686.7" r="337"/>
				<path class="st3" d="M723.6,1670.3l70.7-36.9v15.7c0,1.1-0.3,2.3-0.9,3.3c-0.7,1.1-1.7,2-2.9,2.6l-32.4,16.6
					c-1.4,0.7-2.8,1.3-4.3,1.8c-1.5,0.5-3.1,1-4.9,1.4c1.7,0.4,3.3,0.9,4.9,1.4c1.5,0.5,2.9,1.1,4.3,1.8l32.4,16.7
					c1.2,0.6,2.2,1.4,2.9,2.6c0.6,1,0.9,2.1,0.9,3.3v15.7l-70.7-37V1670.3z"/>
				<path class="st3" d="M826.5,1734.9v-132.7h22v51c3.5-3.3,7.5-6.1,11.8-8.2c4.7-2.2,9.9-3.3,15.1-3.1c4.6-0.1,9.1,0.8,13.3,2.6
					c3.7,1.6,7,4,9.7,7.1c2.7,3.2,4.7,7,5.9,11c1.4,4.6,2.1,9.3,2,14.1v58.3h-22v-58.3c0-5.6-1.3-9.9-3.9-13s-6.5-4.6-11.7-4.6
					c-3.7,0-7.4,0.9-10.7,2.6c-3.5,1.9-6.7,4.2-9.5,7.1v66.3L826.5,1734.9z"/>
				<path class="st3" d="M958.2,1736.3c-7.9,0-14-2.2-18.3-6.7c-4.3-4.5-6.4-10.7-6.4-18.6v-51.2h-9.3c-2.3,0.1-4.3-1.7-4.4-4
					c0-0.2,0-0.4,0-0.6v-8.7l14.7-2.4l4.7-25c0.2-1.1,0.8-2.1,1.7-2.8c0.9-0.7,2.1-1,3.3-1h11.4v28.8h24.1v15.7h-24.1v49.7
					c-0.1,2.4,0.6,4.8,2.1,6.7c1.4,1.6,3.5,2.5,5.7,2.4c1.2,0,2.3-0.1,3.4-0.5c0.8-0.3,1.6-0.6,2.4-1c0.7-0.4,1.3-0.7,1.8-1
					c0.5-0.3,1-0.5,1.6-0.5c0.6,0,1.1,0.1,1.6,0.5c0.5,0.4,1,0.9,1.3,1.5l6.6,10.7c-3.3,2.7-7,4.8-11.1,6.1
					C966.9,1735.7,962.6,1736.4,958.2,1736.3z"/>
				<path class="st3" d="M997.2,1734.9v-91.6h13.5c2.6-0.2,4.9,1.5,5.6,4l1.4,6.8c1.6-1.8,3.2-3.4,5-4.9c1.7-1.5,3.6-2.8,5.6-3.8
					c2-1.1,4.2-1.9,6.4-2.5c2.5-0.7,5-1,7.6-0.9c5.8,0,10.5,1.6,14.2,4.7c3.9,3.3,6.8,7.6,8.4,12.5c1.3-2.9,3.1-5.5,5.4-7.8
					c2.1-2.1,4.4-3.9,7-5.3c2.6-1.4,5.3-2.4,8.2-3c2.9-0.7,5.8-1,8.7-1c4.6-0.1,9.2,0.7,13.5,2.3c3.8,1.5,7.2,3.8,9.9,6.8
					c2.8,3.2,4.9,6.9,6.1,10.9c1.5,4.8,2.2,9.7,2.1,14.7v58.3h-22.1v-58.3c0-5.8-1.3-10.2-3.8-13.2c-2.6-2.9-6.3-4.4-11.3-4.4
					c-2.2,0-4.3,0.4-6.3,1.2c-1.9,0.8-3.6,1.9-5.1,3.3c-1.5,1.6-2.7,3.4-3.4,5.5c-0.9,2.4-1.3,5-1.3,7.6v58.3h-22.2v-58.3
					c0-6.1-1.2-10.6-3.7-13.4c-2.5-2.8-6.1-4.2-10.9-4.2c-3.1,0-6.2,0.8-8.9,2.4c-2.9,1.7-5.5,3.9-7.7,6.5v67.1L997.2,1734.9z"/>
				<path class="st3" d="M1171,1602.2v132.7h-22v-132.7H1171z"/>
				<path class="st3" d="M1204.6,1716.2v-15.7c0-1.1,0.3-2.3,0.9-3.3c0.7-1.1,1.7-2,2.9-2.6l32.4-16.7c2.9-1.4,6-2.5,9.2-3.2
					c-1.7-0.4-3.3-0.9-4.9-1.4c-1.5-0.5-2.9-1.1-4.3-1.8l-32.4-16.6c-1.2-0.6-2.2-1.4-2.9-2.6c-0.6-1-0.9-2.1-0.9-3.3v-15.7
					l70.7,36.9v8.9L1204.6,1716.2z"/>
				
					<ellipse transform="matrix(0.7071 -0.7071 0.7071 0.7071 -519.0226 1684.9886)" class="st1" cx="1774.4" cy="1469" rx="296.9" ry="296.9"/>
				<path class="st3" d="M1617.5,1469.5l85.8-44.7v19.1c0,1.4-0.4,2.8-1.1,4c-0.9,1.3-2.1,2.4-3.6,3.1l-39.3,20.1
					c-1.7,0.9-3.4,1.6-5.3,2.2c-1.8,0.6-3.8,1.2-5.9,1.7c2.1,0.5,4.1,1.1,5.9,1.7c1.8,0.6,3.6,1.3,5.3,2.2l39.3,20.3
					c1.5,0.7,2.7,1.8,3.6,3.1c0.7,1.2,1.1,2.6,1.1,3.9v19.1l-85.8-44.8L1617.5,1469.5z"/>
				<path class="st3" d="M1751.7,1548.3c-0.6,1.6-1.4,3-2.5,4.3c-1,1.2-2.2,2.2-3.5,3.1c-1.3,0.8-2.7,1.5-4.1,1.9
					c-1.4,0.4-2.8,0.7-4.2,0.7h-11.3l63.3-161.8c1-2.8,2.9-5.2,5.3-7c2.5-1.7,5.4-2.5,8.3-2.4h11.4L1751.7,1548.3z"/>
				<path class="st3" d="M1836.8,1525.2v-19.1c0-1.4,0.4-2.8,1.1-3.9c0.9-1.3,2.1-2.4,3.6-3.1l39.3-20.3c3.6-1.7,7.3-3,11.2-3.9
					c-2.1-0.5-4.1-1.1-5.9-1.7c-1.8-0.6-3.6-1.3-5.3-2.2l-39.3-20.2c-1.5-0.7-2.7-1.8-3.6-3.1c-0.7-1.2-1.1-2.6-1.1-4v-19.1
					l85.8,44.7v10.8L1836.8,1525.2z"/>
				<g class="st52">
					
						<linearGradient id="SVGID_40_" gradientUnits="userSpaceOnUse" x1="3105.4875" y1="2075.3364" x2="3118.1482" y2="2075.3364" gradientTransform="matrix(1 0 0 -1 0 3710)">
						<stop  offset="0" style="stop-color:#4F52FF"/>
						<stop  offset="1" style="stop-color:#4042E2"/>
					</linearGradient>
					<path class="st53" d="M3108.9,1641c-0.9,0-1.8-0.4-2.4-1c-1.3-1.3-1.3-3.4,0-4.7c0,0,0,0,0,0c2-1.9,4-3.9,5.9-5.9
						c1.3-1.3,3.4-1.4,4.8-0.1c1.3,1.3,1.4,3.4,0.1,4.8l0,0c-2,2-4,4-6,6C3110.6,1640.6,3109.7,1641,3108.9,1641z"/>
					
						<linearGradient id="SVGID_41_" gradientUnits="userSpaceOnUse" x1="2576.6897" y1="2140.8049" x2="3099.8853" y2="2140.8049" gradientTransform="matrix(1 0 0 -1 0 3710)">
						<stop  offset="0" style="stop-color:#4F52FF"/>
						<stop  offset="1" style="stop-color:#4042E2"/>
					</linearGradient>
					<path class="st54" d="M2899,1729.6c-1.9-0.1-3.3-1.6-3.2-3.5c0.1-1.7,1.4-3.1,3.1-3.2c5.4-0.1,11-0.4,16.4-0.8
						c1.9,0,3.4,1.4,3.5,3.3c0,1.7-1.2,3.2-2.9,3.4C2910.3,1729.2,2904.6,1729.5,2899,1729.6L2899,1729.6z M2882.3,1729.6h-0.1
						c-5.6-0.2-11.3-0.5-16.8-1c-1.9-0.2-3.2-1.8-3.1-3.6s1.8-3.2,3.6-3.1c5.4,0.4,11,0.8,16.4,0.9c1.9,0,3.3,1.5,3.3,3.4
						S2884.2,1729.6,2882.3,1729.6L2882.3,1729.6z M2932.2,1727.1c-1.9,0-3.4-1.4-3.4-3.3c0-1.7,1.3-3.2,3-3.4
						c5.4-0.7,10.9-1.6,16.3-2.6c1.8-0.3,3.6,0.9,3.9,2.7c0.3,1.8-0.9,3.6-2.7,3.9c-5.5,1-11.1,1.9-16.6,2.7L2932.2,1727.1z
						 M2849.2,1726.9c-0.2,0-0.3,0-0.5,0c-5.6-0.8-11.1-1.7-16.6-2.7c-1.8-0.3-3.1-2-2.9-3.8c0.3-1.8,2-3.1,3.8-2.9
						c0.1,0,0.2,0,0.3,0.1c5.4,1,10.8,1.9,16.3,2.7c1.8,0.3,3.1,2,2.8,3.8C2852.2,1725.7,2850.8,1726.9,2849.2,1726.9L2849.2,1726.9
						z M2965,1720.9c-1.9,0-3.4-1.5-3.4-3.3c0-1.6,1.1-2.9,2.6-3.3c5.3-1.3,10.6-2.8,15.9-4.3c1.8-0.5,3.7,0.5,4.2,2.2
						c0.5,1.8-0.5,3.7-2.2,4.2l0,0c-5.4,1.6-10.8,3.1-16.2,4.4C2965.5,1720.8,2965.2,1720.9,2965,1720.9L2965,1720.9z
						 M2816.5,1720.5c-0.3,0-0.6,0-0.8-0.1c-5.4-1.3-10.9-2.9-16.2-4.5c-1.8-0.6-2.8-2.4-2.2-4.2s2.4-2.8,4.2-2.2
						c5.2,1.6,10.6,3.1,15.9,4.4c1.8,0.4,2.9,2.3,2.5,4.1C2819.4,1719.5,2818.1,1720.5,2816.5,1720.5L2816.5,1720.5z M2996.8,1711.2
						c-1.9,0-3.4-1.5-3.3-3.4c0-1.4,0.9-2.6,2.2-3.1c5.1-1.8,10.3-3.9,15.3-6c1.7-0.7,3.7,0.1,4.4,1.8s-0.1,3.7-1.8,4.4l0,0
						c-5.2,2.2-10.4,4.3-15.7,6.2C2997.6,1711.2,2997.2,1711.2,2996.8,1711.2L2996.8,1711.2z M2784.7,1710.8c-0.4,0-0.8-0.1-1.2-0.2
						c-5.3-1.9-10.5-4-15.6-6.2c-1.7-0.7-2.5-2.7-1.8-4.4c0.7-1.7,2.7-2.5,4.4-1.8c5,2.1,10.2,4.2,15.3,6.1c1.7,0.6,2.6,2.6,2,4.3
						C2787.3,1709.9,2786.1,1710.8,2784.7,1710.8L2784.7,1710.8z M3027.5,1698.2c-1.9,0-3.4-1.5-3.4-3.4c0-1.3,0.7-2.4,1.9-3
						c4.9-2.4,9.8-5,14.6-7.6c1.7-0.8,3.7-0.1,4.5,1.5c0.8,1.6,0.2,3.4-1.3,4.4c-4.9,2.7-9.9,5.3-14.9,7.8
						C3028.5,1698.1,3028,1698.3,3027.5,1698.2L3027.5,1698.2z M2754,1697.7c-0.5,0-1-0.1-1.5-0.3c-5-2.5-10-5.1-14.9-7.8
						c-1.6-0.9-2.1-3-1.2-4.6c0.9-1.5,2.9-2.1,4.5-1.3c4.8,2.7,9.7,5.2,14.6,7.7c1.7,0.8,2.4,2.8,1.5,4.5
						C2756.5,1697,2755.3,1697.7,2754,1697.7L2754,1697.7z M3056.6,1682.1c-1.9,0-3.4-1.5-3.4-3.3c0-1.2,0.6-2.2,1.6-2.9
						c4.6-2.9,9.3-6,13.7-9.1c1.6-1,3.7-0.5,4.7,1c0.9,1.5,0.6,3.4-0.8,4.5c-4.6,3.2-9.3,6.3-14,9.3
						C3057.9,1681.9,3057.3,1682.1,3056.6,1682.1L3056.6,1682.1z M2725,1681.5c-0.6,0-1.3-0.2-1.8-0.5c-4.7-3-9.4-6.1-14-9.4
						c-1.5-1.1-1.9-3.2-0.8-4.7s3.2-1.9,4.7-0.8c4.5,3.2,9.1,6.2,13.7,9.2c1.6,1,2.1,3.1,1.1,4.6
						C2727.2,1680.9,2726.1,1681.5,2725,1681.5L2725,1681.5z M3083.8,1663c-1.9,0-3.4-1.5-3.4-3.4c0-1,0.5-2,1.3-2.6
						c4.3-3.4,8.6-6.9,12.7-10.5c1.5-1.2,3.6-0.9,4.7,0.5c1.1,1.4,0.9,3.3-0.3,4.5c-4.2,3.7-8.5,7.3-13,10.8
						C3085.3,1662.7,3084.6,1663,3083.8,1663z M2697.8,1662.3c-0.8,0-1.5-0.3-2.1-0.7c-4.4-3.5-8.7-7.1-12.9-10.8
						c-1.2-1.4-1.1-3.5,0.2-4.8c1.2-1.1,2.9-1.2,4.2-0.2c4.1,3.6,8.3,7.2,12.6,10.6c1.5,1.2,1.7,3.3,0.5,4.7
						C2699.8,1661.8,2698.8,1662.3,2697.8,1662.3L2697.8,1662.3z M2672.9,1640.3c-0.9,0-1.7-0.4-2.4-1c-4-3.9-7.9-8-11.6-12.1
						c-1.3-1.4-1.1-3.5,0.2-4.8c1.4-1.3,3.5-1.1,4.8,0.2c3.7,4.1,7.5,8,11.4,11.9c1.3,1.3,1.3,3.4,0,4.8
						C2674.7,1639.9,2673.8,1640.3,2672.9,1640.3L2672.9,1640.3z M2650.5,1615.7c-1,0-2-0.4-2.6-1.2c-3.5-4.3-7-8.8-10.3-13.3
						c-1.1-1.5-0.8-3.6,0.7-4.7s3.6-0.8,4.7,0.7c3.2,4.4,6.6,8.8,10.1,13c1.2,1.4,1,3.6-0.5,4.7
						C2652,1615.4,2651.2,1615.6,2650.5,1615.7L2650.5,1615.7z M2630.8,1588.8c-1.1,0-2.2-0.6-2.8-1.5c-3.1-4.7-6-9.5-8.8-14.3
						c-0.9-1.6-0.4-3.7,1.2-4.6c1.6-0.9,3.7-0.4,4.6,1.2l0,0c2.7,4.7,5.6,9.4,8.6,14c1,1.6,0.6,3.6-1,4.7
						C2632.1,1588.6,2631.5,1588.8,2630.8,1588.8L2630.8,1588.8z M2614.1,1560c-1.3,0-2.4-0.7-3-1.8c-1.2-2.3-2.4-4.7-3.5-7.1
						c-1.3-2.7-2.5-5.4-3.7-8.1c-0.8-1.7,0-3.7,1.7-4.4s3.7,0,4.4,1.7c1.2,2.7,2.4,5.3,3.7,7.9c1.1,2.3,2.3,4.7,3.4,7
						c0.8,1.7,0.2,3.7-1.5,4.5C2615.2,1559.9,2614.7,1560,2614.1,1560L2614.1,1560z M2600.6,1529.6c-1.4,0-2.6-0.9-3.1-2.2
						c-2-5.2-3.9-10.6-5.6-15.9c-0.6-1.8,0.4-3.7,2.2-4.2c1.8-0.6,3.7,0.4,4.2,2.2c1.7,5.2,3.5,10.4,5.5,15.5
						c0.7,1.7-0.2,3.7-1.9,4.3c0,0,0,0,0,0C2601.4,1529.5,2601,1529.5,2600.6,1529.6L2600.6,1529.6z M2590.4,1497.9
						c-1.5,0-2.9-1-3.3-2.5c-1.4-5.4-2.7-10.9-3.9-16.4c-0.4-1.8,0.8-3.6,2.6-4c1.8-0.4,3.6,0.8,4,2.6c1.1,5.4,2.4,10.8,3.8,16
						c0.5,1.8-0.6,3.6-2.4,4.1c0,0,0,0,0,0C2590.9,1497.8,2590.6,1497.8,2590.4,1497.9L2590.4,1497.9z M2583.6,1465.3
						c-1.7,0-3.1-1.2-3.3-2.9c-0.8-5.5-1.5-11.1-2.1-16.7c-0.3-1.8,1-3.6,2.8-3.8c1.8-0.3,3.6,1,3.8,2.8c0,0.1,0,0.2,0,0.3
						c0.5,5.4,1.2,11,2,16.3c0.3,1.8-1,3.5-2.8,3.8c0,0,0,0,0,0C2583.9,1465.3,2583.7,1465.3,2583.6,1465.3L2583.6,1465.3z
						 M2580.3,1432.2c-1.8,0-3.3-1.4-3.4-3.2c-0.2-4.5-0.3-9-0.3-13.5v-3.3c0.1-1.8,1.6-3.3,3.4-3.3c1.9,0,3.3,1.5,3.3,3.4
						c0,0,0,0,0,0v3.2c0,4.4,0.1,8.9,0.3,13.3c0.1,1.9-1.4,3.4-3.2,3.5H2580.3z"/>
					
						<linearGradient id="SVGID_42_" gradientUnits="userSpaceOnUse" x1="2577.3523" y1="2318.9321" x2="2584.7422" y2="2318.9321" gradientTransform="matrix(1 0 0 -1 0 3710)">
						<stop  offset="0" style="stop-color:#4F52FF"/>
						<stop  offset="1" style="stop-color:#4042E2"/>
					</linearGradient>
					<path class="st55" d="M2580.7,1398.6h-0.2c-1.9-0.1-3.3-1.7-3.1-3.6c0,0,0,0,0,0c0.2-2.8,0.4-5.7,0.7-8.5
						c0.2-1.9,1.8-3.2,3.7-3c1.9,0.2,3.2,1.8,3,3.7c-0.2,2.8-0.5,5.5-0.6,8.3C2584,1397.2,2582.5,1398.6,2580.7,1398.6z"/>
				</g>
				<g class="st52">
					
						<linearGradient id="SVGID_43_" gradientUnits="userSpaceOnUse" x1="2683.4849" y1="2532.2869" x2="2696.6248" y2="2532.2869" gradientTransform="matrix(1 0 0 -1 0 3710)">
						<stop  offset="0" style="stop-color:#4F52FF"/>
						<stop  offset="1" style="stop-color:#4042E2"/>
					</linearGradient>
					<path class="st56" d="M2686.9,1183.8c-1.9,0-3.4-1.5-3.4-3.4c0-1,0.4-1.9,1.2-2.5c2.1-1.8,4.3-3.7,6.5-5.5
						c1.4-1.2,3.5-1.1,4.8,0.3c1.2,1.4,1.1,3.5-0.3,4.8c-0.1,0.1-0.1,0.1-0.2,0.2c-2.1,1.8-4.3,3.6-6.4,5.4
						C2688.4,1183.5,2687.7,1183.8,2686.9,1183.8z"/>
					
						<linearGradient id="SVGID_44_" gradientUnits="userSpaceOnUse" x1="2703.4834" y1="2441.9553" x2="3205.835" y2="2441.9553" gradientTransform="matrix(1 0 0 -1 0 3710)">
						<stop  offset="0" style="stop-color:#4F52FF"/>
						<stop  offset="1" style="stop-color:#4042E2"/>
					</linearGradient>
					<path class="st57" d="M3202,1435.4h-0.2c-1.8-0.1-3.3-1.7-3.2-3.5c0,0,0,0,0,0c0.3-5.7,0.5-11.4,0.5-17
						c-0.1-1.9,1.3-3.4,3.2-3.5c1.9-0.1,3.4,1.3,3.5,3.2c0,0.1,0,0.2,0,0.4c0,5.7-0.2,11.5-0.5,17.3
						C3205.3,1434,3203.8,1435.4,3202,1435.4z M3202,1401.2c-1.8,0-3.3-1.4-3.4-3.2c-0.3-5.6-0.8-11.3-1.4-16.9
						c-0.1-1.9,1.3-3.5,3.2-3.6c1.7-0.1,3.3,1.1,3.5,2.8c0.6,5.7,1.1,11.5,1.4,17.3c0.1,1.9-1.3,3.4-3.2,3.5c0,0,0,0,0,0
						L3202,1401.2z M3198.2,1367.1c-1.6,0-3-1.2-3.3-2.8c-0.9-5.5-2-11.1-3.3-16.6c-0.5-1.8,0.6-3.6,2.4-4.1
						c1.8-0.5,3.6,0.6,4.1,2.4c0,0.1,0,0.2,0.1,0.3c1.3,5.6,2.4,11.3,3.4,17c0.3,1.8-0.9,3.6-2.8,3.9c0,0,0,0,0,0
						C3198.6,1367.1,3198.4,1367.1,3198.2,1367.1z M3190.7,1333.6c-1.5,0-2.8-1-3.2-2.4c-1.6-5.4-3.3-10.9-5.1-16.2
						c-0.6-1.8,0.4-3.7,2.1-4.3c1.7-0.6,3.6,0.3,4.2,2.1c1.9,5.4,3.6,11,5.2,16.5c0.5,1.8-0.5,3.6-2.3,4.2c0,0,0,0,0,0
						C3191.3,1333.6,3191,1333.6,3190.7,1333.6z M3179.5,1301.2c-1.4,0-2.6-0.8-3.1-2.1c-2.1-5.2-4.4-10.4-6.8-15.5
						c-0.7-1.7,0-3.7,1.7-4.4c1.6-0.7,3.5,0,4.3,1.6c2.5,5.2,4.8,10.6,7,15.9c0.7,1.7-0.1,3.7-1.8,4.4
						C3180.4,1301.1,3179.9,1301.2,3179.5,1301.2L3179.5,1301.2z M3164.8,1270.2c-1.2,0-2.4-0.7-3-1.8c-2.7-4.9-5.5-9.9-8.5-14.7
						c-1-1.5-0.6-3.6,0.9-4.7c1.5-1,3.6-0.6,4.7,0.9c0.1,0.1,0.1,0.2,0.2,0.3c3,4.9,5.9,10,8.7,15c0.9,1.6,0.3,3.7-1.3,4.6
						C3165.9,1270.1,3165.3,1270.3,3164.8,1270.2L3164.8,1270.2z M3146.9,1241c-1.1,0-2.1-0.5-2.8-1.5c-3.2-4.6-6.6-9.2-10-13.7
						c-1.2-1.4-1-3.5,0.4-4.8c1.4-1.2,3.5-1,4.8,0.4c0.1,0.1,0.1,0.2,0.2,0.2c3.5,4.6,7,9.3,10.3,14c1.1,1.5,0.7,3.6-0.9,4.7
						C3148.2,1240.8,3147.6,1241,3146.9,1241L3146.9,1241z M3125.9,1214c-1,0-1.9-0.4-2.5-1.2c-3.7-4.2-7.6-8.4-11.5-12.5
						c-1.3-1.3-1.3-3.5,0.1-4.8c1.3-1.3,3.5-1.3,4.8,0.1c4,4.1,8,8.4,11.7,12.7c1.2,1.4,1.1,3.5-0.3,4.7
						C3127.5,1213.7,3126.7,1214,3125.9,1214z M3102,1189.5c-0.8,0-1.7-0.3-2.3-0.9c-4.1-3.8-8.4-7.5-12.8-11.1
						c-1.4-1.2-1.6-3.3-0.5-4.7c1.2-1.4,3.3-1.6,4.7-0.5c4.5,3.7,8.9,7.5,13.1,11.4c1.4,1.3,1.5,3.4,0.2,4.7
						C3103.8,1189.1,3102.9,1189.5,3102,1189.5z M2706.9,1167.9c-1.9,0-3.4-1.5-3.4-3.4c0-1.1,0.5-2.1,1.4-2.7
						c4.6-3.4,9.4-6.7,14.3-9.9c1.6-1,3.6-0.6,4.7,1c1,1.6,0.6,3.6-1,4.7c-4.7,3.1-9.4,6.3-13.9,9.7
						C2708.2,1167.7,2707.5,1167.9,2706.9,1167.9L2706.9,1167.9z M3075.5,1167.7c-0.7,0-1.4-0.2-2-0.7c-4.5-3.3-9.2-6.6-13.9-9.7
						c-1.6-1-2-3.1-1-4.7c1-1.6,3.1-2,4.7-1c4.8,3.2,9.6,6.5,14.3,9.9c1.5,1.1,1.8,3.2,0.7,4.7
						C3077.6,1167.2,3076.5,1167.7,3075.5,1167.7L3075.5,1167.7z M2735.6,1149.2c-1.9,0-3.4-1.5-3.4-3.4c0-1.2,0.6-2.3,1.7-2.9
						c5-2.9,10.1-5.7,15.3-8.3c1.7-0.7,3.7,0.2,4.4,1.9c0.6,1.5,0,3.2-1.4,4.1c-5,2.5-10,5.3-14.9,8.1
						C2736.7,1149,2736.1,1149.1,2735.6,1149.2L2735.6,1149.2z M3046.8,1149c-0.6,0-1.2-0.2-1.7-0.4c-4.9-2.8-9.9-5.5-14.9-8.1
						c-1.7-0.7-2.5-2.7-1.8-4.4c0.7-1.7,2.7-2.5,4.4-1.8c0.1,0.1,0.2,0.1,0.4,0.2c5.1,2.6,10.3,5.4,15.3,8.2c1.6,0.9,2.1,3,1.2,4.6
						C3049,1148.4,3047.9,1149,3046.8,1149L3046.8,1149z M2766.2,1133.7c-1.9,0-3.4-1.5-3.4-3.4c0-1.3,0.8-2.5,2-3.1
						c5.3-2.3,10.7-4.5,16-6.6c1.8-0.6,3.7,0.4,4.2,2.2c0.5,1.6-0.3,3.4-1.9,4.1c-5.3,2-10.6,4.1-15.7,6.4
						C2767,1133.6,2766.6,1133.7,2766.2,1133.7L2766.2,1133.7z M3016.2,1133.6c-0.5,0-0.9-0.1-1.4-0.3c-5.1-2.3-10.4-4.4-15.7-6.4
						c-1.7-0.7-2.6-2.6-2-4.3s2.6-2.6,4.3-2c5.4,2,10.8,4.2,16.1,6.5c1.7,0.8,2.5,2.7,1.7,4.4
						C3018.7,1132.8,3017.5,1133.6,3016.2,1133.6L3016.2,1133.6z M2798.2,1121.6c-1.9,0-3.4-1.5-3.3-3.4c0-1.5,1-2.7,2.3-3.2
						c5.5-1.7,11.1-3.3,16.7-4.7c1.8-0.5,3.6,0.6,4.1,2.4c0.5,1.8-0.6,3.6-2.4,4.1c-5.5,1.4-11,3-16.3,4.6
						C2798.9,1121.5,2798.6,1121.6,2798.2,1121.6L2798.2,1121.6z M2984,1121.5c-0.3,0-0.7-0.1-1-0.2c-5.4-1.7-10.9-3.2-16.3-4.6
						c-1.8-0.5-2.9-2.3-2.4-4.1c0.5-1.8,2.3-2.9,4.1-2.4c5.6,1.4,11.2,3,16.7,4.7c1.8,0.5,2.8,2.4,2.2,4.2
						C2986.8,1120.5,2985.5,1121.5,2984,1121.5L2984,1121.5z M2831.5,1113.1c-1.9,0-3.4-1.5-3.3-3.4c0-1.6,1.1-2.9,2.7-3.3
						c5.6-1.1,11.4-2.1,17.1-2.9c1.8-0.3,3.5,1,3.8,2.9c0.3,1.8-1,3.5-2.9,3.8l0,0c-5.6,0.8-11.2,1.7-16.7,2.8
						C2831.9,1113.1,2831.7,1113.1,2831.5,1113.1L2831.5,1113.1z M2950.8,1113.1c-0.2,0-0.4,0-0.6-0.1c-5.5-1.1-11.2-2-16.7-2.8
						c-1.8-0.3-3-2.1-2.7-3.9c0.3-1.7,1.9-2.9,3.6-2.7c5.7,0.8,11.4,1.8,17.1,2.9c1.8,0.4,3,2.2,2.6,4
						C2953.8,1112,2952.4,1113.1,2950.8,1113.1L2950.8,1113.1z M2916.8,1108.4h-0.3c-5.6-0.5-11.3-0.8-16.9-0.9
						c-1.9,0-3.3-1.6-3.3-3.5c0,0,0,0,0,0c0.1-1.8,1.6-3.3,3.5-3.3c5.8,0.2,11.6,0.5,17.3,1c1.9,0.1,3.2,1.8,3.1,3.6
						C2920,1107.1,2918.6,1108.4,2916.8,1108.4L2916.8,1108.4z M2865.4,1108.4c-1.9,0-3.3-1.6-3.3-3.4c0-1.7,1.3-3.1,3-3.3
						c5.8-0.5,11.6-0.8,17.3-1c1.8,0,3.4,1.4,3.5,3.3c0.1,1.9-1.4,3.4-3.3,3.5c-5.6,0.2-11.3,0.5-16.9,0.9L2865.4,1108.4z"/>
					
						<linearGradient id="SVGID_45_" gradientUnits="userSpaceOnUse" x1="3196.1389" y1="2256.3506" x2="3203.9189" y2="2256.3506" gradientTransform="matrix(1 0 0 -1 0 3710)">
						<stop  offset="0" style="stop-color:#4F52FF"/>
						<stop  offset="1" style="stop-color:#4042E2"/>
					</linearGradient>
					<path class="st58" d="M3199.5,1461.1h-0.5c-1.8-0.3-3.1-2-2.9-3.8c0.4-2.7,0.7-5.5,1-8.3c0.3-1.8,2-3.1,3.9-2.8
						c1.7,0.3,2.9,1.8,2.8,3.5c-0.3,2.8-0.7,5.6-1.1,8.4C3202.6,1459.9,3201.2,1461.1,3199.5,1461.1z"/>
				</g>
				
					<linearGradient id="SVGID_46_" gradientUnits="userSpaceOnUse" x1="2618.2827" y1="2293.6475" x2="3159.0547" y2="2293.6475" gradientTransform="matrix(1 0 0 -1 0 3710)">
					<stop  offset="0" style="stop-color:#4F52FF"/>
					<stop  offset="1" style="stop-color:#4042E2"/>
				</linearGradient>
				<path class="st59" d="M3158.8,1487.4c0.7-1.7,0.2-3.7-1.2-4.9l-40.2-34c3.5-24.7,3-49.8-1.6-74.3l38.6-35.8
					c1.3-1.3,1.7-3.2,1-4.9l-25.5-57.8c-0.7-1.7-2.5-2.7-4.3-2.6l-52.5,4.4c-15-19.9-33.2-37.3-53.8-51.4l2-52.7
					c0.1-1.8-1-3.5-2.8-4.2l-58.9-22.9c-1.7-0.7-3.7-0.2-4.9,1.2l-34,40.2c-24.7-3.5-49.8-3-74.3,1.6l-35.8-38.6
					c-1.3-1.3-3.2-1.7-4.9-1l-57.8,25.5c-1.7,0.7-2.7,2.5-2.6,4.3l4.4,52.5c-19.9,15-37.3,33.2-51.4,53.7l-52.6-2
					c-1.8-0.1-3.5,1-4.2,2.8l-22.9,58.9c-0.7,1.7-0.2,3.7,1.2,4.9l40.2,34c-3.5,24.7-3,49.8,1.6,74.3l-38.6,35.7
					c-1.4,1.3-1.8,3.2-1,4.9l25.5,57.8c0.7,1.7,2.5,2.7,4.3,2.6l52.5-4.3c15,19.9,33.2,37.3,53.8,51.4l-2,52.7
					c-0.1,1.8,1,3.5,2.8,4.2l58.9,22.9c1.7,0.7,3.7,0.2,4.9-1.2l34-40.2c24.7,3.5,49.8,3,74.3-1.6l35.8,38.6c1.3,1.3,3.2,1.7,4.9,1
					l57.8-25.5c1.7-0.7,2.7-2.5,2.6-4.3l-4.4-52.5c19.9-15,37.3-33.1,51.4-53.7l52.6,2c1.8,0.1,3.5-1,4.2-2.8L3158.8,1487.4z"/>
				<path class="st3" d="M2888.7,1475.8c-32.8,0-59.5-26.5-59.5-59.4s26.5-59.5,59.4-59.5c18.4,0,35.7,8.4,47,22.9l0,0
					c20.2,25.9,15.6,63.3-10.3,83.4C2914.8,1471.4,2902,1475.8,2888.7,1475.8z M2888.6,1363.6c-29.1,0.1-52.7,23.7-52.7,52.9
					c0.1,29.1,23.7,52.7,52.9,52.7c29.1-0.1,52.7-23.7,52.7-52.9c0-11.7-3.9-23.1-11.1-32.3l0,0c-8.6-11.1-21.2-18.2-35.1-19.9
					C2893,1363.7,2890.8,1363.6,2888.6,1363.6L2888.6,1363.6z"/>
				<path class="st3" d="M2887.6,1571.8c-86,0-155.8-69.7-155.8-155.7s69.7-155.8,155.7-155.8c74,0,137.7,52,152.6,124.4
					c0,0.2,0.1,0.5,0.1,0.7c0,1.9-1.5,3.4-3.4,3.4c-1.6,0-3-1.1-3.3-2.7c-2.1-10.4-5.4-20.5-9.7-30.3l0,0c-1-2.2-2-4.3-3-6.4l0,0
					c0-0.1-0.1-0.2-0.1-0.2c0,0,0,0,0-0.1l0,0v-0.1c-37-73.6-126.6-103.2-200.2-66.2c-70.9,35.7-101.5,120.6-69.5,193.2
					c33.1,75.3,121.3,109.5,196.6,76.4c24.7-10.8,46-28.2,61.6-50.2c1.1-1.5,3.2-1.9,4.7-0.8c1.5,1.1,1.9,3.2,0.8,4.7
					C2985.4,1547.3,2938.1,1571.7,2887.6,1571.8L2887.6,1571.8z"/>
				<g class="st52">
					
						<linearGradient id="SVGID_47_" gradientUnits="userSpaceOnUse" x1="2654.741" y1="2464.7114" x2="2667.418" y2="2464.7114" gradientTransform="matrix(1 0 0 -1 0 3710)">
						<stop  offset="0" style="stop-color:#4F52FF"/>
						<stop  offset="1" style="stop-color:#4042E2"/>
					</linearGradient>
					<path class="st60" d="M2658.1,1251.6c-1.9,0-3.4-1.5-3.4-3.4c0-0.9,0.4-1.8,1-2.4c2-1.9,4-3.9,5.9-5.9c1.3-1.3,3.4-1.4,4.8-0.1
						c1.3,1.3,1.4,3.4,0.1,4.8c-2,2-4,4-6,6C2659.8,1251.3,2659,1251.6,2658.1,1251.6z"/>
					
						<linearGradient id="SVGID_48_" gradientUnits="userSpaceOnUse" x1="2233.2395" y1="2514.9351" x2="2648.7549" y2="2514.9351" gradientTransform="matrix(1 0 0 -1 0 3710)">
						<stop  offset="0" style="stop-color:#4F52FF"/>
						<stop  offset="1" style="stop-color:#4042E2"/>
					</linearGradient>
					<path class="st61" d="M2485.6,1321.3c-4.6,0-9.2-0.1-13.7-0.4c-1.9-0.1-3.3-1.7-3.2-3.5s1.7-3.3,3.5-3.2l0,0
						c5.6,0.3,11.2,0.4,16.8,0.3l0,0c1.9,0.1,3.3,1.7,3.2,3.5c-0.1,1.7-1.4,3.1-3.2,3.2C2487.9,1321.3,2486.7,1321.3,2485.6,1321.3z
						 M2506,1320.5c-1.9,0-3.3-1.6-3.3-3.5c0-1.7,1.3-3.1,3-3.3c5.6-0.5,11.2-1.1,16.7-2c1.8-0.3,3.5,1,3.8,2.8
						c0.3,1.8-1,3.5-2.8,3.8c-5.7,0.9-11.4,1.6-17.1,2L2506,1320.5z M2455,1319.5h-0.4c-5.7-0.7-11.4-1.6-17-2.7
						c-1.8-0.3-3.1-2-2.8-3.8c0.3-1.8,2-3.1,3.8-2.8c0.1,0,0.2,0,0.3,0.1c5.5,1.1,11,1.9,16.6,2.6c1.8,0.2,3.1,1.9,2.9,3.8
						C2458.1,1318.3,2456.7,1319.5,2455,1319.5L2455,1319.5z M2539.6,1315.4c-1.9,0-3.4-1.5-3.3-3.4c0-1.6,1.1-2.9,2.6-3.2
						c5.4-1.2,10.9-2.7,16.3-4.2c1.8-0.5,3.7,0.5,4.2,2.3c0.5,1.8-0.5,3.7-2.3,4.2l0,0c-5.5,1.6-11.1,3.1-16.7,4.4
						C2540.1,1315.3,2539.9,1315.4,2539.6,1315.4L2539.6,1315.4z M2421.6,1313c-0.3,0-0.6,0-0.9-0.1c-5.5-1.5-11.1-3.1-16.5-5
						c-1.8-0.6-2.7-2.5-2.1-4.3c0.6-1.8,2.5-2.7,4.3-2.1l0,0c5.3,1.8,10.7,3.4,16.1,4.9c1.8,0.5,2.9,2.3,2.4,4.1
						C2424.4,1312,2423.1,1313,2421.6,1313L2421.6,1313z M2572.2,1305.7c-1.9,0-3.4-1.5-3.4-3.4c0-1.4,0.9-2.6,2.2-3.1
						c5.2-1.9,10.4-4.1,15.5-6.4c1.7-0.8,3.7,0,4.4,1.7c0.8,1.7,0,3.7-1.7,4.4c-5.2,2.4-10.6,4.6-15.9,6.6
						C2573,1305.6,2572.7,1305.6,2572.2,1305.7L2572.2,1305.7z M2389.4,1302.1c-0.4,0-0.9-0.1-1.3-0.3c-5.3-2.2-10.6-4.6-15.7-7.2
						c-1.6-1-2.1-3.1-1.1-4.6c0.9-1.4,2.6-1.9,4.1-1.4c5,2.5,10.1,4.8,15.3,7c1.7,0.7,2.5,2.7,1.8,4.4
						C2392,1301.3,2390.8,1302.1,2389.4,1302.1L2389.4,1302.1z M2603.2,1291.6c-1.9,0-3.4-1.5-3.4-3.3c0-1.3,0.7-2.4,1.8-3
						c4.9-2.6,9.8-5.5,14.5-8.4c1.5-1.1,3.6-0.7,4.7,0.8s0.7,3.6-0.8,4.7c-0.1,0.1-0.2,0.1-0.3,0.2c-4.9,3-9.9,6-14.9,8.7
						C2604.3,1291.5,2603.8,1291.6,2603.2,1291.6L2603.2,1291.6z M2359,1286.8c-0.6,0-1.2-0.2-1.7-0.5c-4.9-2.9-9.8-6-14.6-9.3
						c-1.6-1-2.1-3.1-1.1-4.6c1-1.6,3.1-2.1,4.6-1.1c0.1,0,0.2,0.1,0.2,0.2c4.6,3.2,9.4,6.2,14.2,9c1.6,0.9,2.1,3,1.2,4.6
						C2361.3,1286.2,2360.2,1286.8,2359,1286.8L2359,1286.8z M2632,1273.5c-1.9,0-3.4-1.5-3.4-3.4c0-1.1,0.5-2.1,1.4-2.7
						c4.5-3.3,9-6.8,13.2-10.3c1.4-1.2,3.5-1,4.7,0.4c1.2,1.4,1,3.5-0.4,4.7c-4.4,3.7-8.9,7.3-13.6,10.6
						C2633.4,1273.3,2632.7,1273.5,2632,1273.5L2632,1273.5z M2330.9,1267.6c-0.8,0-1.5-0.3-2.1-0.7c-4.5-3.6-8.9-7.3-13.2-11.2
						c-1.4-1.3-1.5-3.4-0.2-4.8c1.3-1.4,3.4-1.5,4.8-0.2c4.1,3.7,8.4,7.4,12.8,10.8c1.5,1.2,1.7,3.3,0.5,4.7
						C2332.9,1267.1,2331.9,1267.6,2330.9,1267.6L2330.9,1267.6z M2305.7,1244.8c-0.9,0-1.8-0.3-2.4-1c-4-4.1-7.8-8.5-11.5-12.9
						c-1.2-1.5-0.9-3.6,0.5-4.7c1.4-1.1,3.5-0.9,4.6,0.4c3.6,4.3,7.3,8.5,11.2,12.5c1.3,1.3,1.2,3.5-0.1,4.8
						C2307.5,1244.4,2306.6,1244.8,2305.7,1244.8L2305.7,1244.8z M2284,1218.6c-1.1,0-2.1-0.5-2.7-1.4c-3.4-4.6-6.6-9.4-9.6-14.3
						c-0.9-1.6-0.4-3.7,1.3-4.6c1.5-0.9,3.5-0.4,4.4,1c3,4.8,6.1,9.4,9.4,13.9c1.1,1.5,0.8,3.6-0.7,4.7
						C2285.4,1218.4,2284.7,1218.6,2284,1218.6L2284,1218.6z M2266,1189.8c-1.3,0-2.4-0.7-3-1.8c-1.7-3.2-3.4-6.6-5-9.9
						c-0.9-1.9-1.8-3.7-2.6-5.6c-0.8-1.7,0-3.7,1.7-4.4s3.7,0,4.4,1.7l0,0c0.8,1.8,1.7,3.6,2.5,5.4c1.6,3.2,3.2,6.5,4.9,9.6
						c0.9,1.6,0.3,3.7-1.3,4.6C2267.1,1189.7,2266.5,1189.8,2266,1189.8L2266,1189.8z M2252,1158.8c-1.4,0-2.7-0.9-3.1-2.2
						c-2-5.4-3.8-10.9-5.4-16.4c-0.5-1.8,0.5-3.7,2.3-4.2c1.8-0.5,3.7,0.5,4.2,2.3c1.6,5.3,3.4,10.7,5.3,15.9c0.6,1.7-0.2,3.7-2,4.3
						C2252.8,1158.7,2252.4,1158.8,2252,1158.8L2252,1158.8z M2242.4,1126.2c-1.6,0-2.9-1.1-3.3-2.6c-1.2-5.6-2.3-11.3-3.1-17
						c-0.4-1.8,0.8-3.6,2.7-3.9c1.8-0.3,3.6,0.8,3.9,2.7c0,0.1,0,0.2,0,0.3c0.8,5.5,1.9,11.1,3.1,16.5c0.4,1.8-0.8,3.6-2.6,4
						C2242.9,1126.1,2242.7,1126.1,2242.4,1126.2L2242.4,1126.2z M2237.4,1092.5c-1.8,0-3.2-1.4-3.4-3.1c-0.4-5.7-0.7-11.5-0.8-17.2
						c0-1.9,1.5-3.4,3.3-3.4c0,0,0,0,0,0c1.8,0,3.4,1.5,3.4,3.3c0.1,5.6,0.3,11.2,0.8,16.8c0.1,1.8-1.2,3.5-3.1,3.6c0,0,0,0,0,0
						L2237.4,1092.5z"/>
					
						<linearGradient id="SVGID_49_" gradientUnits="userSpaceOnUse" x1="2233.6499" y1="2659.1946" x2="2241.0103" y2="2659.1946" gradientTransform="matrix(1 0 0 -1 0 3710)">
						<stop  offset="0" style="stop-color:#4F52FF"/>
						<stop  offset="1" style="stop-color:#4042E2"/>
					</linearGradient>
					<path class="st62" d="M2237,1058.4h-0.2c-1.9-0.1-3.3-1.7-3.2-3.5c0,0,0,0,0,0c0.2-2.8,0.4-5.7,0.6-8.5c0.2-1.9,1.8-3.2,3.7-3
						c1.9,0.2,3.2,1.8,3,3.7l0,0c-0.2,2.8-0.5,5.5-0.6,8.3C2240.2,1057,2238.8,1058.4,2237,1058.4z"/>
				</g>
				<g class="st52">
					
						<linearGradient id="SVGID_50_" gradientUnits="userSpaceOnUse" x1="2318.6001" y1="2831.0908" x2="2331.77" y2="2831.0908" gradientTransform="matrix(1 0 0 -1 0 3710)">
						<stop  offset="0" style="stop-color:#4F52FF"/>
						<stop  offset="1" style="stop-color:#4042E2"/>
					</linearGradient>
					<path class="st63" d="M2322,885c-1,0-1.9-0.4-2.5-1.2c-1.2-1.4-1.1-3.5,0.3-4.8c2.1-1.9,4.3-3.7,6.5-5.5c1.4-1.2,3.5-1,4.7,0.4
						c1.2,1.4,1,3.5-0.4,4.7c0,0-0.1,0.1-0.1,0.1c-2.1,1.8-4.3,3.5-6.3,5.3C2323.6,884.7,2322.8,885,2322,885z"/>
					
						<linearGradient id="SVGID_51_" gradientUnits="userSpaceOnUse" x1="2338.3982" y1="2760.7151" x2="2737.52" y2="2760.7151" gradientTransform="matrix(1 0 0 -1 0 3710)">
						<stop  offset="0" style="stop-color:#4F52FF"/>
						<stop  offset="1" style="stop-color:#4042E2"/>
					</linearGradient>
					<path class="st64" d="M2734,1081.5h-0.1c-1.9-0.1-3.3-1.6-3.2-3.5c0,0,0,0,0,0c0.1-3,0.2-6,0.2-9c0-2.5,0-5.1-0.1-7.6
						c0-1.9,1.6-3.3,3.4-3.3c1.7,0,3.2,1.4,3.3,3.1c0.1,2.6,0.1,5.2,0.1,7.8c0,3.1-0.1,6.1-0.2,9.2
						C2737.3,1080,2735.8,1081.5,2734,1081.5z M2733,1048c-1.7,0-3.2-1.3-3.4-3c-0.5-5.4-1.3-11-2.2-16.4c-0.2-1.8,1.1-3.5,2.9-3.8
						c1.7-0.2,3.3,0.9,3.7,2.6c0.9,5.6,1.7,11.2,2.3,16.8c0.2,1.8-1.2,3.5-3,3.7L2733,1048z M2727.4,1015c-1.6,0-2.9-1.1-3.3-2.6
						c-1.3-5.3-2.8-10.7-4.4-15.9c-0.5-1.8,0.6-3.6,2.4-4.1c1.7-0.4,3.4,0.5,4,2.1c1.7,5.4,3.2,10.9,4.5,16.4
						c0.4,1.8-0.7,3.6-2.5,4.1C2728,1015,2727.7,1015,2727.4,1015L2727.4,1015z M2717.5,983c-1.4,0-2.6-0.9-3.1-2.2
						c-2-5.1-4.1-10.2-6.5-15.2c-0.8-1.7-0.1-3.7,1.6-4.5c1.7-0.8,3.7-0.1,4.5,1.6c2.4,5.1,4.6,10.4,6.7,15.6
						c0.7,1.7-0.2,3.7-1.9,4.4c0,0,0,0,0,0C2718.3,982.9,2717.9,983,2717.5,983L2717.5,983z M2703.4,952.6c-1.2,0-2.4-0.7-2.9-1.7
						c-2.7-4.8-5.5-9.6-8.4-14.2c-1.1-1.5-0.7-3.6,0.8-4.7c1.5-1.1,3.6-0.7,4.7,0.8c0.1,0.1,0.1,0.2,0.2,0.3c3,4.7,5.9,9.6,8.7,14.6
						c0.9,1.6,0.3,3.7-1.3,4.6C2704.5,952.5,2703.9,952.7,2703.4,952.6L2703.4,952.6z M2685.4,924.4c-1.1,0-2.1-0.5-2.7-1.4
						c-3.3-4.4-6.7-8.8-10.3-12.9c-1.3-1.4-1.2-3.5,0.2-4.8s3.5-1.2,4.8,0.2c0.1,0.1,0.1,0.2,0.2,0.2c3.6,4.3,7.2,8.8,10.5,13.3
						c1.1,1.5,0.8,3.6-0.7,4.7C2686.8,924.2,2686.1,924.4,2685.4,924.4z M2663.6,899c-0.9,0-1.8-0.4-2.4-1
						c-3.8-3.9-7.8-7.8-11.9-11.4c-1.4-1.2-1.5-3.4-0.3-4.7c1.2-1.4,3.4-1.5,4.7-0.3c4.2,3.8,8.3,7.7,12.2,11.8
						c1.3,1.3,1.3,3.5-0.1,4.8C2665.3,898.7,2664.5,899,2663.6,899L2663.6,899z M2638.7,876.7c-0.7,0-1.5-0.2-2.1-0.7
						c-4.3-3.4-8.8-6.6-13.4-9.7c-1.5-1-1.9-3.1-0.9-4.7c1-1.5,3.1-1.9,4.7-0.9c4.7,3.2,9.3,6.5,13.7,10c1.5,1.2,1.7,3.3,0.5,4.7
						C2640.6,876.2,2639.7,876.6,2638.7,876.7L2638.7,876.7z M2341.8,869.5c-1.9,0-3.4-1.5-3.4-3.4c0-1.1,0.5-2.1,1.4-2.7
						c4.6-3.2,9.4-6.4,14.2-9.3c1.6-0.9,3.7-0.3,4.6,1.4c0.8,1.5,0.4,3.4-1.1,4.4c-4.7,2.9-9.4,5.9-13.8,9.1
						C2343.1,869.3,2342.5,869.5,2341.8,869.5L2341.8,869.5z M2611,857.9c-0.6,0-1.2-0.2-1.7-0.5c-4.7-2.8-9.6-5.4-14.5-7.8
						c-1.6-1-2.1-3.1-1.1-4.6c0.9-1.4,2.6-1.9,4.1-1.4c5.1,2.5,10.1,5.2,14.9,8.1c1.6,0.9,2.2,3,1.2,4.6
						C2613.3,857.3,2612.2,857.9,2611,857.9L2611,857.9z M2370.4,852c-1.9,0-3.4-1.5-3.4-3.4c0-1.2,0.7-2.4,1.8-3
						c2.5-1.3,5.1-2.6,7.7-3.8c2.5-1.2,5.1-2.4,7.6-3.5c1.7-0.7,3.7,0,4.4,1.7c0.7,1.7,0,3.7-1.7,4.4l0,0c-2.5,1.1-5,2.2-7.4,3.4
						s-5,2.5-7.5,3.7C2371.4,851.9,2370.9,852.1,2370.4,852L2370.4,852z M2581,843c-0.4,0-0.9-0.1-1.3-0.3
						c-5.1-2.1-10.3-4.1-15.5-5.8c-1.8-0.6-2.7-2.5-2.1-4.3c0.6-1.8,2.5-2.7,4.3-2.1c5.3,1.8,10.7,3.8,15.9,6
						c1.7,0.7,2.5,2.7,1.8,4.4C2583.5,842.2,2582.3,843,2581,843z M2401,838.6c-1.9,0-3.4-1.5-3.3-3.4c0-1.4,0.9-2.7,2.2-3.1
						c5.3-1.9,10.7-3.7,16.1-5.2c1.8-0.4,3.6,0.7,4.1,2.5c0.4,1.7-0.6,3.4-2.2,4c-5.3,1.5-10.6,3.2-15.7,5.1
						C2401.8,838.5,2401.4,838.6,2401,838.6L2401,838.6z M2549.3,832.2c-0.3,0-0.6,0-0.9-0.1c-5.3-1.4-10.7-2.7-16.1-3.7
						c-1.8-0.4-2.9-2.2-2.5-4c0.4-1.7,2.1-2.9,3.8-2.6c5.5,1.1,11.1,2.4,16.5,3.8c1.8,0.5,2.9,2.3,2.4,4.1
						C2552.1,831.2,2550.8,832.2,2549.3,832.2L2549.3,832.2z M2433.2,829.4c-1.9,0-3.4-1.5-3.4-3.3c0-1.6,1.1-3,2.7-3.3
						c5.5-1.2,11.1-2.2,16.7-3c1.8-0.3,3.6,1,3.8,2.8c0.3,1.8-1,3.6-2.8,3.8l0,0c-5.4,0.8-10.9,1.8-16.3,2.9
						C2433.7,829.3,2433.4,829.3,2433.2,829.4L2433.2,829.4z M2516.5,825.8h-0.4c-5.5-0.7-11-1.2-16.4-1.5c-1.9-0.1-3.3-1.7-3.2-3.5
						c0.1-1.9,1.7-3.3,3.6-3.2l0,0c5.6,0.3,11.3,0.9,16.9,1.6c1.8,0.2,3.2,1.9,3,3.7C2519.7,824.6,2518.2,825.9,2516.5,825.8
						L2516.5,825.8z M2466.3,824.5c-1.9,0.1-3.4-1.4-3.5-3.2s1.4-3.4,3.2-3.5c5.6-0.4,11.3-0.7,17-0.7l0,0c1.9,0.1,3.3,1.7,3.2,3.5
						c-0.1,1.7-1.5,3.1-3.2,3.2c-5.5,0-11,0.3-16.5,0.7L2466.3,824.5z"/>
					
						<linearGradient id="SVGID_52_" gradientUnits="userSpaceOnUse" x1="2728.4189" y1="2610.9019" x2="2736.1689" y2="2610.9019" gradientTransform="matrix(1 0 0 -1 0 3710)">
						<stop  offset="0" style="stop-color:#4F52FF"/>
						<stop  offset="1" style="stop-color:#4042E2"/>
					</linearGradient>
					<path class="st65" d="M2731.8,1106.6c-0.2,0-0.3,0-0.5,0c-1.8-0.3-3.1-2-2.9-3.8c0.4-2.7,0.7-5.5,1-8.2c0.2-1.8,1.8-3.2,3.6-3
						c0,0,0,0,0.1,0c1.8,0.2,3.2,1.9,3,3.7c-0.3,2.8-0.6,5.6-1,8.4C2734.9,1105.4,2733.5,1106.6,2731.8,1106.6z"/>
				</g>
				
					<linearGradient id="SVGID_53_" gradientUnits="userSpaceOnUse" x1="2267.1445" y1="2639.8135" x2="2699.4424" y2="2639.8135" gradientTransform="matrix(1 0 0 -1 0 3710)">
					<stop  offset="0" style="stop-color:#4F52FF"/>
					<stop  offset="1" style="stop-color:#4042E2"/>
				</linearGradient>
				<path class="st66" d="M2699.2,1126.9c0.5-1.4,0.1-2.9-1-3.9l-32.1-27.2c2.8-19.7,2.4-39.8-1.3-59.4l30.9-28.6
					c1.1-1,1.4-2.6,0.8-3.9l-20.4-46.2c-0.6-1.4-2-2.2-3.4-2.1l-42,3.5c-12-15.9-26.5-29.8-43-41.1l1.6-42.1
					c0.1-1.5-0.8-2.8-2.2-3.4l-47.1-18.3c-1.4-0.5-2.9-0.1-3.9,1l-27.1,32.1c-19.7-2.8-39.8-2.4-59.4,1.3l-28.6-30.9
					c-1-1.1-2.6-1.4-4-0.8l-46.2,20.4c-1.4,0.6-2.2,2-2.1,3.5l3.5,42c-15.9,12-29.8,26.5-41.1,43l-42.1-1.6
					c-1.5-0.1-2.8,0.8-3.4,2.2l-18.3,47.1c-0.5,1.4-0.1,2.9,1,3.9l32.1,27.2c-2.8,19.7-2.4,39.8,1.3,59.4l-30.9,28.6
					c-1.1,1-1.4,2.6-0.8,3.9l20.4,46.2c0.6,1.3,2,2.1,3.4,2l41.9-3.5c12,15.9,26.5,29.8,43,41.1l-1.6,42.1c-0.1,1.5,0.8,2.8,2.2,3.4
					l47.1,18.3c1.4,0.5,2.9,0.1,3.9-1l27.2-32.1c19.7,2.8,39.8,2.4,59.4-1.3l28.6,30.9c1,1.1,2.6,1.4,3.9,0.8l46.2-20.4
					c1.4-0.6,2.2-2,2.1-3.5l-3.5-41.9c15.9-12,29.8-26.5,41.1-43l42.1,1.6c1.5,0.1,2.8-0.8,3.4-2.2L2699.2,1126.9z"/>
				<path class="st3" d="M2483.4,1118.4c-2,0-4-0.1-6-0.4c-26.4-3.3-45.2-27.4-41.9-53.8c3.3-26.4,27.4-45.2,53.8-41.9
					c12.7,1.6,24.2,8.1,32.1,18.2l0,0c16.4,21,12.6,51.3-8.4,67.7C2504.5,1114.8,2494.2,1118.4,2483.4,1118.4L2483.4,1118.4z
					 M2483.2,1028.7c-22.9,0-41.5,18.6-41.4,41.6c0,22.9,18.6,41.5,41.6,41.4s41.5-18.6,41.4-41.6c0-9.2-3.1-18.2-8.8-25.4l0,0
					C2508.1,1034.6,2496,1028.6,2483.2,1028.7z"/>
				<path class="st3" d="M2482.4,1195.1c-69.2,0.1-125.4-55.9-125.5-125.1c-0.1-69.2,55.9-125.4,125.1-125.5
					c49.7-0.1,94.8,29.3,114.8,74.8l0,0c3.3,7.6,5.9,15.4,7.7,23.5c0.1,0.6,0.3,1.3,0.4,1.9c0,0.2,0.1,0.5,0.1,0.7
					c0,1.9-1.5,3.4-3.3,3.4c-1.6,0-3-1.1-3.3-2.7c-1.7-8.2-4.3-16.3-7.7-24l0,0c-11.9-27.1-33.5-48.8-60.6-60.7
					c-1.6-0.7-3.3-1.4-4.9-2c-61-23.7-129.7,6.6-153.4,67.6c-23.7,61,6.6,129.7,67.6,153.4c50.7,19.7,108.2,2.4,139.6-42
					c1.1-1.5,3.2-1.8,4.7-0.7c1.4,1.1,1.8,3.1,0.8,4.5C2561,1175.4,2523,1195,2482.4,1195.1L2482.4,1195.1z"/>
			</g>
		</g>
	</g>
</g>
</svg>
